<?xml version="1.0" encoding="utf-8"?>
<!-- Generator: Adobe Illustrator 16.0.3, SVG Export Plug-In . SVG Version: 6.00 Build 0)  -->
<!DOCTYPE svg PUBLIC "-//W3C//DTD SVG 1.1//EN" "http://www.w3.org/Graphics/SVG/1.1/DTD/svg11.dtd">
<svg version="1.1" id="Ebene_1" xmlns="http://www.w3.org/2000/svg" xmlns:xlink="http://www.w3.org/1999/xlink" x="0px" y="0px"
	 width="71px" height="71px" viewBox="0.063 -0.563 71 71" enable-background="new 0.063 -0.563 71 71" xml:space="preserve">
<g>
	<path fill="#2D3E50" d="M51.563,46.185c-0.553-0.318-9-0.8-9-0.8c-4.9-0.4-12.8-1.4-17.5-2.2s-12.2-1.5-16.7-1.5h-8.3v9.9v9.899
		l3.8-0.5c2.1-0.3,7.2,0.4,11.7,1.5c4.4,1.2,11.5,2.8,15.7,3.601c7.6,1.6,7.8,1.6,14.3-0.9c13.5-5.1,25.5-13.8,25.5-18.5
		c0-3.2-1.8-3.3-9-0.4c-5.2,2-7,3.2-7.4,5c-0.699,2.601-1.199,2.801-13.699,4.4c-7,1-9.102,0.9-12-0.3c-3.3-1.4-3.2-1.4,7.6-2.101
		c6.1-0.399,11.9-0.801,13-0.899c0,0,3.48-0.328,3.333-3.296C52.748,46.122,51.563,46.185,51.563,46.185z"/>
	<g>
		<path fill="#2D3E50" d="M27.362,4.184c-4.8,2-7,7.2-5.4,12.5c1.288,3.875,14.202,17.774,18.913,22.188l3.388,3.112l7-6.9
			c11.7-11.5,14.8-15.9,14.8-20.9c0-10.6-11.6-14.9-19.7-7.3l-2.3,2.1l-2.2-2.1c-2.5-2.3-7-4.2-9.6-4.2
			C31.362,2.784,29.063,3.384,27.362,4.184z"/>
		<path fill="none" stroke="#FFFFFF" stroke-width="2" stroke-linecap="round" stroke-miterlimit="10" d="M24.264,13.626
			c0-4.402,3.568-7.972,7.972-7.972"/>
	</g>
</g>
</svg>
