<?xml version="1.0" encoding="utf-8"?>
<!-- Generator: Adobe Illustrator 16.0.0, SVG Export Plug-In . SVG Version: 6.00 Build 0)  -->
<!DOCTYPE svg PUBLIC "-//W3C//DTD SVG 1.1//EN" "http://www.w3.org/Graphics/SVG/1.1/DTD/svg11.dtd">
<svg version="1.1" id="Ebene_1" xmlns="http://www.w3.org/2000/svg" xmlns:xlink="http://www.w3.org/1999/xlink" x="0px" y="0px"
	 width="350px" height="110.647px" viewBox="0 0 350 110.647" enable-background="new 0 0 350 110.647" xml:space="preserve">
<g>
	<defs>
		<rect id="SVGID_1_" width="350" height="110.647"/>
	</defs>
	<clipPath id="SVGID_2_">
		<use xlink:href="#SVGID_1_"  overflow="visible"/>
	</clipPath>
	<g clip-path="url(#SVGID_2_)">
		<defs>
			<rect id="SVGID_3_" x="-51.482" y="-103.753" width="457.402" height="322.359"/>
		</defs>
		<clipPath id="SVGID_4_">
			<use xlink:href="#SVGID_3_"  overflow="visible"/>
		</clipPath>
		<path clip-path="url(#SVGID_4_)" fill="#8CD2F2" d="M52.269,14.945c0.017,0,0.035-0.001,0.051-0.001
			C52.303,14.944,52.286,14.945,52.269,14.945 M52.208,14.945h0.049H52.208 M52.152,14.945h0.047H52.152 M52.093,14.945
			c0.017,0,0.035,0,0.05,0C52.126,14.945,52.111,14.945,52.093,14.945 M51.979,14.946c0.033,0,0.07,0,0.104,0
			C52.049,14.945,52.013,14.945,51.979,14.946 M51.918,14.947c0.017,0,0.034-0.001,0.049-0.001
			C51.951,14.946,51.935,14.947,51.918,14.947 M51.864,14.947c0.016,0,0.032,0,0.046,0C51.894,14.947,51.88,14.947,51.864,14.947
			 M51.804,14.948c0.017,0,0.035-0.001,0.05-0.001C51.838,14.947,51.821,14.948,51.804,14.948 M51.69,14.949
			c0.035-0.001,0.07-0.001,0.104-0.001C51.76,14.948,51.725,14.948,51.69,14.949 M51.63,14.95c0.016,0,0.033,0,0.049,0
			C51.663,14.95,51.648,14.95,51.63,14.95 M51.576,14.951c0.014,0,0.029,0,0.043,0C51.605,14.951,51.589,14.951,51.576,14.951
			 M51.516,14.952c0.017-0.001,0.035-0.001,0.051-0.001C51.55,14.951,51.533,14.951,51.516,14.952 M51.454,14.953
			c0.018,0,0.033,0,0.052,0C51.489,14.952,51.471,14.953,51.454,14.953 M51.403,14.954c0.016,0,0.034,0,0.051-0.001
			C51.438,14.954,51.419,14.954,51.403,14.954 M51.341,14.955c0.017,0,0.034-0.001,0.05-0.001
			C51.374,14.954,51.358,14.955,51.341,14.955 M51.286,14.957c0.013-0.001,0.033-0.001,0.048-0.001
			C51.317,14.955,51.303,14.956,51.286,14.957 M51.228,14.957c0.016,0,0.035,0,0.052,0C51.262,14.957,51.244,14.957,51.228,14.957
			 M51.113,14.96c0.036,0,0.07-0.002,0.105-0.002C51.183,14.958,51.149,14.96,51.113,14.96 M51.052,14.962
			c0.018,0,0.036,0,0.054-0.001C51.087,14.961,51.07,14.962,51.052,14.962 M50.997,14.964c0.018,0,0.036-0.001,0.053-0.002
			C51.032,14.963,51.014,14.964,50.997,14.964 M50.939,14.965c0.017,0,0.036-0.001,0.052-0.001
			C50.974,14.964,50.958,14.965,50.939,14.965 M50.825,14.969c0.036,0,0.071-0.002,0.107-0.003
			C50.896,14.967,50.86,14.968,50.825,14.969 M50.764,14.971c0.018-0.001,0.037-0.001,0.056-0.002
			C50.801,14.97,50.782,14.97,50.764,14.971 M50.708,14.974c0.02-0.002,0.036-0.002,0.056-0.002
			C50.744,14.972,50.727,14.972,50.708,14.974 M50.65,14.975c0.02-0.001,0.036-0.001,0.055-0.001
			C50.687,14.974,50.669,14.974,50.65,14.975 M50.537,14.98c0.037-0.001,0.073-0.003,0.112-0.005
			C50.609,14.977,50.575,14.979,50.537,14.98 M50.42,14.984c0.038-0.001,0.075-0.003,0.113-0.004
			C50.495,14.981,50.459,14.983,50.42,14.984 M50.363,14.986c0.019,0,0.037-0.001,0.057-0.002
			C50.4,14.985,50.382,14.986,50.363,14.986 M50.248,14.992c0.038-0.002,0.078-0.004,0.113-0.006
			C50.324,14.988,50.287,14.99,50.248,14.992 M35.305,18.294L35.305,18.294c4.64-1.91,9.674-3.063,14.943-3.302
			C44.979,15.232,39.945,16.384,35.305,18.294 M68.749,28.395c-1.971-2.657-4.387-4.964-7.136-6.813
			c0.005-0.242,0.008-0.486,0.008-0.729c0-1.709-0.136-3.386-0.397-5.021c-2.854-0.577-5.808-0.883-8.832-0.887
			c6.245,0.009,12.189,1.298,17.585,3.618c0,0.027-0.001,0.055-0.001,0.082c0,1.352,0.63,2.558,1.613,3.338
			C70.482,24.03,69.531,26.172,68.749,28.395 M87.375,31.883c-3.013-3.794-6.632-7.089-10.706-9.738c0,0,0,0,0-0.001
			C80.743,24.793,84.361,28.089,87.375,31.883C87.375,31.883,87.375,31.883,87.375,31.883 M8.615,50.086
			c0-0.001,0-0.001-0.001-0.001c0.702-3.211,1.749-6.294,3.101-9.206c0,0,0,0.001,0.001,0.002c-0.696,1.501-1.312,3.045-1.841,4.63
			c0.482,0.392,0.976,0.769,1.482,1.133c-0.717,0.298-1.424,0.614-2.121,0.948C9.007,48.413,8.799,49.245,8.615,50.086
			 M97.044,58.517c0-0.014,0-0.029-0.001-0.043C97.044,58.487,97.044,58.503,97.044,58.517 M97.045,58.568
			c0-0.017-0.001-0.032-0.001-0.048C97.044,58.536,97.045,58.552,97.045,58.568 M97.047,58.616
			c-0.001-0.016-0.001-0.028-0.001-0.043C97.045,58.587,97.045,58.602,97.047,58.616 M97.047,58.67c0-0.016,0-0.03,0-0.046
			C97.047,58.64,97.047,58.655,97.047,58.67 M97.048,58.717c0-0.015,0-0.031-0.001-0.046C97.048,58.686,97.048,58.702,97.048,58.717
			 M97.05,58.765c-0.001-0.012-0.001-0.025-0.001-0.039C97.048,58.74,97.048,58.752,97.05,58.765 M97.05,58.821
			c0-0.015,0-0.031,0-0.047C97.05,58.789,97.05,58.806,97.05,58.821 M97.052,58.866c0-0.014,0-0.027-0.002-0.041
			C97.052,58.839,97.052,58.852,97.052,58.866 M97.052,58.919c0-0.013,0-0.027,0-0.041C97.052,58.892,97.052,58.906,97.052,58.919
			 M97.054,58.969c0-0.016,0-0.03-0.001-0.046C97.053,58.939,97.053,58.954,97.054,58.969 M97.054,59.017c0-0.013,0-0.022,0-0.035
			C97.054,58.992,97.054,59.006,97.054,59.017 M97.055,59.072c0-0.014,0-0.03-0.001-0.044
			C97.055,59.042,97.055,59.058,97.055,59.072 M97.055,59.119c0-0.013,0-0.025,0-0.038C97.055,59.094,97.055,59.107,97.055,59.119
			 M97.056,59.174c0-0.013-0.001-0.03-0.001-0.043C97.055,59.144,97.056,59.161,97.056,59.174 M97.057,59.222
			c0-0.015,0-0.031,0-0.046C97.056,59.192,97.057,59.206,97.057,59.222 M97.057,59.269c0-0.011,0-0.023,0-0.035
			C97.057,59.245,97.057,59.259,97.057,59.269 M97.058,59.325c0-0.014-0.001-0.029-0.001-0.043
			C97.057,59.296,97.057,59.311,97.058,59.325 M7.583,59.339c0.006-0.728,0.028-1.454,0.069-2.173
			C7.611,57.886,7.588,58.61,7.583,59.339 M97.058,59.371v-0.034V59.371 M7.582,59.437c0-0.033,0-0.063,0-0.097
			C7.583,59.372,7.582,59.406,7.582,59.437 M97.058,59.475v-0.091V59.475 M7.582,59.482c0-0.015,0-0.028,0-0.043
			C7.582,59.454,7.582,59.468,7.582,59.482 M97.058,59.524v-0.036V59.524 M7.582,59.533v-0.042V59.533 M97.058,59.579v-0.045V59.579
			 M7.582,59.581v-0.044V59.581 M97.058,59.624V59.59V59.624 M7.582,59.625v-0.033V59.625 M7.582,59.684L7.582,59.684V59.64V59.684
			 M97.058,59.684v-0.044V59.684 M97.058,59.728v-0.044V59.728 M97.058,59.776v-0.035V59.776 M97.058,59.832v-0.046V59.832
			 M97.058,59.875v-0.038V59.875 M97.058,59.933v-0.042V59.933 M97.058,59.98v-0.046V59.98 M97.058,60.027V59.99V60.027
			 M97.057,60.083c0-0.015,0.001-0.03,0.001-0.045C97.058,60.053,97.057,60.068,97.057,60.083 M97.057,60.129
			c0-0.014,0-0.029,0-0.043C97.057,60.102,97.057,60.115,97.057,60.129 M97.056,60.182c0-0.014,0-0.029,0-0.044
			C97.057,60.152,97.056,60.168,97.056,60.182 M97.055,60.233c0-0.016,0.001-0.032,0.001-0.048
			C97.056,60.201,97.055,60.216,97.055,60.233 M97.055,60.28c0-0.016,0-0.029,0-0.045C97.055,60.251,97.055,60.264,97.055,60.28
			 M97.054,60.381c0-0.032,0.001-0.064,0.001-0.095C97.055,60.317,97.054,60.35,97.054,60.381 M97.05,60.533
			c0.002-0.048,0.003-0.097,0.004-0.147C97.053,60.435,97.052,60.484,97.05,60.533 M95.183,72.542L95.183,72.542
			c1.142-3.814,1.791-7.841,1.867-12.008C96.974,64.701,96.327,68.728,95.183,72.542"/>
		<path clip-path="url(#SVGID_4_)" fill="#00A1CD" d="M69.089,58.999c-3.32-2.844-7.437-4.785-11.971-5.441
			c-2.959-2.463-6.242-4.55-9.774-6.19c8.413-5.555,14.026-15.006,14.27-25.784c2.75,1.848,5.165,4.156,7.136,6.812
			c-1.631,4.643-2.519,9.635-2.519,14.834C66.23,48.779,67.242,54.095,69.089,58.999"/>
		<path clip-path="url(#SVGID_4_)" fill="#C6D53F" d="M63.485,108.984c-7.877,0-15.55-2.1-22.261-5.949
			c3.549,0.906,7.265,1.387,11.096,1.387h0.038h0.017h0.022h0.017h0.022h0.017h0.022h0.016h0.023h0.015
			c0.009-0.001,0.018-0.001,0.026-0.001h0.012h0.029h0.01c0.039,0,0.08,0,0.119,0h0.003c0.012,0,0.023,0,0.036-0.001h0.008h0.033
			c0.001,0,0.003,0,0.004,0h0.035h0.006c0.011,0,0.024,0,0.034,0h0.006c19.989-0.25,36.823-13.61,42.295-31.877
			c3.864,1.148,7.558,2.813,10.977,4.945c-3.959,12.779-13.589,23.65-27.099,28.679C73.925,108.078,68.661,108.984,63.485,108.984"
			/>
		<path clip-path="url(#SVGID_4_)" fill="#69B54E" d="M52.888,104.418c6.699-0.083,13.042-1.64,18.721-4.358
			c0.87-3.102,1.413-6.337,1.591-9.671c2.626-3.812,4.165-8.432,4.165-13.411c0-1.634-0.166-3.23-0.48-4.771
			c3.771,4.432,8.394,8.121,13.612,10.811c1.987-3.243,3.572-6.758,4.686-10.476h0.002C89.71,90.809,72.876,104.169,52.888,104.418
			 M52.848,104.419c0.011,0,0.022,0,0.035-0.001C52.873,104.419,52.859,104.419,52.848,104.419 M52.808,104.419
			c0.012,0,0.022,0,0.035,0C52.831,104.419,52.819,104.419,52.808,104.419 M52.77,104.419c0.011,0,0.022,0,0.033,0
			C52.792,104.419,52.782,104.419,52.77,104.419 M52.727,104.421c0.011-0.001,0.024-0.001,0.036-0.001
			C52.751,104.419,52.739,104.419,52.727,104.421 M52.605,104.422c0.041,0,0.08-0.001,0.12-0.001
			C52.685,104.421,52.644,104.422,52.605,104.422 M52.566,104.422c0.01,0,0.019,0,0.03,0
			C52.585,104.422,52.576,104.422,52.566,104.422 M52.529,104.422h0.027H52.529 M52.49,104.422h0.024H52.49 M52.454,104.422h0.021
			H52.454 M52.413,104.422h0.022H52.413 M52.374,104.422h0.022H52.374 M52.32,104.422h0.038H52.32"/>
		<path clip-path="url(#SVGID_4_)" fill="#3EAD59" d="M106.67,52.843c-0.397,0-0.794-0.021-1.189-0.064
			c0.023-1.393-0.109-2.798-0.404-4.193c0.573-1.866,1.648-3.603,3.211-4.998c2.111-1.883,4.743-2.809,7.365-2.809
			c0.689,0,1.379,0.064,2.057,0.191c0.237,3.308-1.007,6.685-3.674,9.063C111.924,51.917,109.293,52.843,106.67,52.843"/>
		<path clip-path="url(#SVGID_4_)" fill="#C6D53F" d="M15.144,28.562c-0.362-0.235-0.719-0.479-1.075-0.733
			C6.471,22.396,2.29,13.965,1.977,5.3c2.726-0.823,5.563-1.243,8.414-1.243c5.829,0,11.712,1.755,16.814,5.404
			c3.396,2.428,6.109,5.455,8.1,8.833c-4.824,1.986-9.229,4.792-13.033,8.242c-0.296-0.025-0.597-0.038-0.899-0.038
			C19.038,26.499,16.881,27.266,15.144,28.562"/>
		<path clip-path="url(#SVGID_4_)" fill="#69B54E" d="M22.273,26.537h-0.001c3.804-3.451,8.208-6.258,13.033-8.243
			c0,0.001,0,0,0,0.001C30.479,20.28,26.078,23.086,22.273,26.537"/>
		<path clip-path="url(#SVGID_4_)" fill="#C6D53F" d="M90.05,35.631c-0.828-1.296-1.723-2.548-2.676-3.749
			c0.708-1.878,1.931-3.589,3.638-4.903c2.031-1.563,4.426-2.317,6.804-2.317c0.967,0,1.933,0.125,2.87,0.373
			c-0.005,3.345-1.502,6.653-4.36,8.85c-0.692,0.533-1.427,0.972-2.189,1.319c-1.089-0.472-2.221-0.84-3.38-1.101
			C90.499,34.602,90.263,35.112,90.05,35.631"/>
		<path clip-path="url(#SVGID_4_)" fill="#69B54E" d="M90.05,35.632c-0.828-1.296-1.722-2.548-2.675-3.748v-0.001
			C88.329,33.083,89.222,34.335,90.05,35.632C90.05,35.631,90.05,35.631,90.05,35.632"/>
		<path clip-path="url(#SVGID_4_)" fill="#A0D5DF" d="M103.361,61.165c-2.248-0.503-4.392-1.417-6.318-2.695v-0.003
			c0-0.032-0.001-0.063-0.002-0.095c-0.001-0.001-0.001-0.005-0.001-0.007c-0.001-0.031-0.001-0.064-0.002-0.096v-0.003
			c0-0.016-0.002-0.03-0.002-0.046v-0.004c-0.001-0.032-0.003-0.064-0.003-0.096v-0.005c-0.001-0.015-0.001-0.031-0.001-0.045
			v-0.001c-0.002-0.018-0.002-0.033-0.002-0.05c-0.001,0-0.001-0.002-0.001-0.003c0-0.016,0-0.032-0.001-0.048
			c0-0.032-0.001-0.067-0.003-0.098c0-0.003,0-0.003,0-0.005c-0.001-0.031-0.003-0.066-0.004-0.098v-0.001
			c-0.002-0.049-0.004-0.101-0.007-0.15c-0.357-7.844-2.733-15.16-6.624-21.443c1.278-0.099,2.547-0.418,3.749-0.965
			c4.081,1.768,7.556,4.979,9.581,9.329c0.617,1.323,1.067,2.683,1.357,4.053c-0.405,1.317-0.561,2.697-0.461,4.065
			c0.287,0.054,0.576,0.097,0.868,0.128C105.433,55.712,104.697,58.586,103.361,61.165"/>
		<path clip-path="url(#SVGID_4_)" fill="#2DB8D5" d="M97.012,57.612c-0.357-7.844-2.735-15.16-6.624-21.443
			C94.278,42.452,96.655,49.768,97.012,57.612 M97.019,57.762c-0.002-0.05-0.004-0.099-0.007-0.15
			C97.014,57.663,97.016,57.713,97.019,57.762 M97.023,57.862c-0.001-0.033-0.003-0.065-0.004-0.098
			C97.02,57.796,97.021,57.831,97.023,57.862 M97.026,57.964c-0.001-0.032-0.001-0.065-0.003-0.098
			C97.023,57.897,97.024,57.933,97.026,57.964 M97.029,58.013c-0.001-0.015-0.003-0.032-0.003-0.048
			C97.026,57.981,97.027,57.997,97.029,58.013 M97.031,58.065c-0.002-0.017-0.002-0.032-0.002-0.049
			C97.029,58.033,97.029,58.048,97.031,58.065 M97.032,58.113c-0.001-0.016-0.001-0.03-0.001-0.046
			C97.031,58.082,97.031,58.098,97.032,58.113 M97.035,58.214c-0.001-0.032-0.001-0.064-0.003-0.095
			C97.034,58.15,97.034,58.184,97.035,58.214 M97.037,58.265c0-0.015-0.001-0.031-0.001-0.045
			C97.036,58.234,97.037,58.25,97.037,58.265 M97.041,58.364c-0.002-0.033-0.002-0.063-0.004-0.096
			C97.038,58.299,97.039,58.332,97.041,58.364 M97.042,58.466c0-0.032-0.001-0.063-0.002-0.094
			C97.041,58.403,97.042,58.434,97.042,58.466"/>
		<path clip-path="url(#SVGID_4_)" fill="#00A255" d="M105.481,52.779c-0.292-0.031-0.581-0.074-0.869-0.127
			c-0.098-1.369,0.059-2.749,0.463-4.065C105.372,49.981,105.504,51.386,105.481,52.779"/>
		<path clip-path="url(#SVGID_4_)" fill="#77B848" d="M90.388,36.169c-0.111-0.181-0.224-0.359-0.338-0.538
			c0.213-0.52,0.449-1.029,0.708-1.528c1.158,0.261,2.291,0.629,3.379,1.101C92.936,35.751,91.666,36.07,90.388,36.169"/>
		<path clip-path="url(#SVGID_4_)" fill="#1CA74F" d="M90.388,36.169c-0.112-0.18-0.225-0.359-0.338-0.538
			C90.165,35.81,90.277,35.989,90.388,36.169L90.388,36.169"/>
		<path clip-path="url(#SVGID_4_)" fill="#C6D53F" d="M97.043,58.473c-0.001-0.001-0.001-0.001-0.001-0.004
			C97.042,58.472,97.042,58.472,97.043,58.473 M97.044,58.521v-0.004V58.521 M97.045,58.573v-0.004V58.573 M97.047,58.624
			c0-0.002,0-0.005,0-0.009C97.046,58.617,97.047,58.622,97.047,58.624 M97.048,58.67C97.048,58.669,97.048,58.671,97.048,58.67
			 M97.048,58.727v-0.01V58.727 M97.05,58.775v-0.01V58.775 M97.051,58.825v-0.004V58.825 M97.052,58.878c0-0.004,0-0.008,0-0.012
			C97.052,58.87,97.052,58.875,97.052,58.878 M97.053,58.923v-0.004V58.923 M97.053,58.982c0-0.005,0-0.008,0-0.013
			C97.053,58.974,97.053,58.978,97.053,58.982 M97.055,59.028v-0.011V59.028 M97.055,59.082c0-0.003,0-0.006,0-0.01
			C97.055,59.076,97.055,59.079,97.055,59.082 M97.056,59.131c0-0.004,0-0.008-0.001-0.013
			C97.056,59.124,97.056,59.127,97.056,59.131 M97.056,59.177v-0.003V59.177 M97.058,59.234v-0.012V59.234 M97.058,59.282
			c0-0.005,0-0.008,0-0.014C97.058,59.273,97.058,59.277,97.058,59.282 M97.058,59.337c0-0.003,0-0.009,0-0.011
			C97.058,59.329,97.058,59.333,97.058,59.337 M97.058,59.384v-0.013V59.384 M97.059,59.488v-0.013V59.488 M97.059,59.533v-0.009
			V59.533 M97.059,59.59v-0.011V59.59 M97.059,59.639v-0.015V59.639 M97.059,59.741v-0.014V59.741 M97.059,59.786v-0.01V59.786
			 M97.059,59.839v-0.006V59.839 M97.059,59.891v-0.015V59.891 M97.059,59.934v-0.001V59.934 M97.058,59.99v-0.01V59.99
			 M97.058,60.037c0-0.003,0-0.007,0-0.01C97.058,60.03,97.058,60.034,97.058,60.037 M97.058,60.086v-0.003V60.086 M97.058,60.138
			v-0.009V60.138 M97.056,60.185v-0.002V60.185 M97.056,60.235v-0.002V60.235 M97.055,60.286c0-0.002,0-0.003,0-0.006
			C97.055,60.282,97.055,60.285,97.055,60.286 M97.053,60.386v-0.004V60.386 M97.051,60.534L97.051,60.534L97.051,60.534"/>
		<path clip-path="url(#SVGID_4_)" fill="#69B54E" d="M95.183,72.541c-4.088-1.214-8.364-1.851-12.704-1.851
			c-1.942,0-3.898,0.128-5.855,0.389c-1.065-4.151-3.228-7.862-6.16-10.805c2.524-4.296,3.971-9.301,3.971-14.644
			c0-6.456-2.113-12.42-5.686-17.235c0.781-2.223,1.733-4.365,2.84-6.411c0.726,0.578,1.647,0.923,2.649,0.923
			c0.902,0,1.741-0.28,2.43-0.761c4.074,2.648,7.693,5.943,10.706,9.738c-0.476,1.263-0.719,2.602-0.721,3.947
			c0.937,0.247,1.902,0.373,2.87,0.373c0.102,0,0.203-0.001,0.304-0.004c-1.701,4.561-1.646,9.775,0.572,14.537
			c1.518,3.26,3.852,5.882,6.643,7.734v0.003c0,0.014,0.001,0.03,0.001,0.043v0.004c0,0.017,0,0.031,0.001,0.048v0.004
			c0,0.015,0,0.028,0,0.043v0.009c0.001,0.015,0.001,0.03,0.001,0.045v0c0,0.017,0.001,0.031,0.001,0.046
			c0,0.003,0.001,0.007,0.001,0.01c0,0.013,0,0.026,0,0.039v0.008c0,0.016,0.001,0.031,0.001,0.047v0.004
			c0.001,0.013,0.001,0.027,0.001,0.041v0.013c0,0.014,0,0.028,0.001,0.041v0.004c0,0.016,0,0.031,0,0.046v0.013
			c0,0.012,0,0.022,0,0.035c0.001,0.004,0.001,0.006,0.001,0.01c0,0.015,0,0.031,0,0.046v0.009c0,0.012,0,0.026,0,0.038v0.012
			c0.001,0.013,0.001,0.029,0.001,0.042v0.003c0,0.015,0,0.03,0,0.044c0,0.005,0,0.009,0,0.014v0.034v0.013
			c0.001,0.015,0.001,0.029,0.001,0.044v0.011c0,0.011,0,0.023,0,0.035v0.013c0,0.029,0,0.061,0,0.09v0.015v0.035v0.009v0.046v0.011
			c0.001,0.01,0.001,0.023,0.001,0.034v0.015v0.045v0.044v0.013c0,0.011,0,0.022-0.001,0.035v0.011v0.046v0.006v0.038v0.013
			c0,0.015,0,0.029,0,0.043v0.001v0.046v0.009c0,0.013,0,0.025,0,0.038v0.01c0,0.015,0,0.03-0.001,0.045v0.004v0.043
			c0,0.003,0,0.006,0,0.009v0.043c0,0.001,0,0.001,0,0.003c0,0.016,0,0.032-0.001,0.048v0.003c0,0.015,0,0.028,0,0.043v0.007
			c0,0.032-0.001,0.063-0.001,0.095c0,0.001,0,0.004,0,0.005c0,0.048-0.001,0.098-0.001,0.146v0
			C96.974,64.701,96.326,68.728,95.183,72.541"/>
		<path clip-path="url(#SVGID_4_)" fill="#00954F" d="M70.464,60.274c-0.441-0.442-0.9-0.868-1.375-1.275
			c-1.848-4.904-2.859-10.22-2.859-15.77c0-5.2,0.887-10.192,2.519-14.834c3.573,4.815,5.686,10.779,5.686,17.235
			C74.435,50.973,72.988,55.978,70.464,60.274"/>
		<path clip-path="url(#SVGID_4_)" fill="#3CAB3C" d="M90.497,83.018c-5.219-2.691-9.841-6.378-13.613-10.81
			c-0.078-0.379-0.165-0.756-0.261-1.128c1.958-0.262,3.914-0.39,5.858-0.39c4.338,0,8.614,0.636,12.702,1.852
			C94.068,76.26,92.483,79.775,90.497,83.018"/>
		<path clip-path="url(#SVGID_4_)" fill="#3CAB3C" d="M89.524,36.203c-0.968,0-1.933-0.125-2.87-0.373
			c0.001-1.345,0.245-2.683,0.72-3.947c0.953,1.201,1.848,2.453,2.676,3.749c-0.077,0.188-0.151,0.376-0.222,0.567
			C89.727,36.201,89.625,36.203,89.524,36.203"/>
		<path clip-path="url(#SVGID_4_)" fill="#77B848" d="M97.012,57.613L97.012,57.613 M97.019,57.765v-0.002V57.765 M97.023,57.867
			c0-0.003,0-0.002-0.001-0.005C97.023,57.863,97.023,57.864,97.023,57.867 M97.026,57.965L97.026,57.965 M97.029,58.016v-0.003
			V58.016 M97.031,58.067v-0.001V58.067 M97.032,58.118c0-0.003,0-0.003,0-0.005C97.032,58.115,97.032,58.116,97.032,58.118
			 M97.035,58.22v-0.005V58.22 M97.037,58.268v-0.004V58.268 M97.041,58.371c0-0.003,0-0.004-0.001-0.007
			C97.041,58.365,97.041,58.369,97.041,58.371 M97.042,58.469L97.042,58.469v-0.003V58.469"/>
		<path clip-path="url(#SVGID_4_)" fill="#1CA74F" d="M97.042,58.469c-2.792-1.852-5.125-4.473-6.644-7.733
			c-2.217-4.762-2.272-9.977-0.57-14.537c0.186-0.005,0.374-0.015,0.56-0.029c3.889,6.282,6.267,13.599,6.624,21.443
			c0.002,0.051,0.005,0.1,0.007,0.15v0.002c0.001,0.032,0.003,0.065,0.003,0.097c0.001,0.003,0.001,0.001,0.001,0.005
			c0,0.032,0.001,0.065,0.003,0.098c0,0.015,0.001,0.032,0.003,0.048v0.003c0,0.017,0,0.032,0.002,0.05v0.001
			c0,0.015,0,0.03,0.001,0.045c0,0.002,0,0.002,0,0.005c0.001,0.032,0.002,0.065,0.003,0.096v0.005c0,0.014,0.001,0.03,0.001,0.044
			v0.004c0.001,0.033,0.002,0.063,0.003,0.096c0.001,0.003,0.001,0.004,0.001,0.007c0,0.032,0.001,0.063,0.002,0.095V58.469"/>
		<path clip-path="url(#SVGID_4_)" fill="#00A13F" d="M89.829,36.199c0.07-0.19,0.144-0.379,0.222-0.566
			c0.114,0.178,0.226,0.357,0.337,0.537C90.201,36.184,90.015,36.193,89.829,36.199"/>
		<path clip-path="url(#SVGID_4_)" fill="#A0D5DF" d="M52.257,14.944h0.012H52.257 M52.392,14.944H52.32H52.392 M52.199,14.945
			h0.009H52.199 M52.144,14.945h0.008H52.144 M52.083,14.946c0.004-0.001,0.007-0.001,0.01-0.001
			C52.089,14.945,52.087,14.945,52.083,14.946 M51.969,14.946h0.011H51.969 M51.91,14.946h0.008H51.91 M51.855,14.947h0.01H51.855
			 M51.795,14.948h0.009H51.795 M51.679,14.949h0.011H51.679 M51.619,14.95c0.004-0.001,0.008-0.001,0.011-0.001
			C51.627,14.949,51.622,14.949,51.619,14.95 M51.567,14.951h0.008H51.567 M51.506,14.952h0.01H51.506 M51.454,14.953L51.454,14.953
			 M51.391,14.954h0.012H51.391 M51.334,14.956c0.001,0,0.004,0,0.008,0C51.338,14.955,51.337,14.956,51.334,14.956 M51.279,14.957
			h0.006H51.279 M51.219,14.958c0.002,0,0.005,0,0.007,0C51.225,14.958,51.222,14.958,51.219,14.958 M51.106,14.961h0.006H51.106
			 M51.049,14.962h0.003H51.049 M50.993,14.964h0.004H50.993 M50.933,14.965c0.001,0,0.004,0,0.007,0
			C50.937,14.965,50.936,14.965,50.933,14.965 M50.819,14.97h0.004H50.819 M50.764,14.971L50.764,14.971L50.764,14.971
			 M50.706,14.974h0.002H50.706 M50.647,14.976h0.003H50.647 M50.533,14.979h0.003H50.533 M50.42,14.984L50.42,14.984L50.42,14.984
			 M50.362,14.986L50.362,14.986L50.362,14.986 M50.248,14.992h0.001H50.248"/>
		<path clip-path="url(#SVGID_4_)" fill="#2DB8D5" d="M61.613,21.583c-4.61-3.099-10.159-4.906-16.131-4.906
			c-3.542,0-6.935,0.636-10.071,1.799c-0.036-0.061-0.071-0.12-0.106-0.181c4.64-1.911,9.674-3.063,14.943-3.304
			c0.039-0.001,0.076-0.003,0.113-0.004h0.002c0.019-0.001,0.037-0.001,0.057-0.003l0,0c0.038-0.001,0.075-0.002,0.113-0.004
			c0.002,0,0.002,0,0.003,0c0.038-0.001,0.073-0.003,0.112-0.004h0.001c0.02,0,0.037-0.001,0.055-0.002h0.003
			c0.019-0.001,0.036-0.001,0.056-0.001c0.018-0.001,0.037-0.001,0.056-0.002h0.005c0.035-0.001,0.072-0.002,0.107-0.004h0.008
			c0.017,0,0.035,0,0.052-0.001h0.005c0.019,0,0.036,0,0.053-0.001h0.002c0.018,0,0.036,0,0.053-0.002c0.003,0,0.007,0,0.008,0
			c0.036,0,0.07-0.001,0.107-0.002h0.007c0.017,0,0.035,0,0.052,0c0.004,0,0.002,0,0.007-0.001c0.016,0,0.031,0,0.048,0h0.007
			c0.017-0.001,0.033-0.001,0.05-0.001h0.012c0.016-0.001,0.034-0.001,0.051-0.001l0,0c0.017,0,0.035-0.001,0.051-0.001h0.01
			c0.017,0,0.035-0.001,0.051-0.001h0.009c0.014,0,0.03,0,0.044,0h0.01c0.018,0,0.032-0.001,0.049-0.001c0.005,0,0.007,0,0.011,0
			c0.035,0,0.07,0,0.104-0.001h0.009c0.017,0,0.033,0,0.05,0c0.003,0,0.008,0,0.01,0h0.046c0.003,0,0.005,0,0.008-0.001h0.049h0.013
			c0.034,0,0.069,0,0.102,0h0.011h0.05h0.008c0.015,0,0.033-0.001,0.047-0.001h0.009h0.049h0.012h0.051h0.072
			c3.024,0.005,5.978,0.311,8.833,0.888c0.261,1.636,0.397,3.313,0.397,5.021C61.622,21.097,61.619,21.34,61.613,21.583"/>
		<path clip-path="url(#SVGID_4_)" fill="#0098B8" d="M47.344,47.367c-5.393-2.503-11.369-3.965-17.667-4.124
			c1.334-1.752,2.126-3.941,2.126-6.313c0-1.303-0.239-2.549-0.674-3.698c2.768-0.023,5.52-0.443,8.168-1.242
			c-0.169-4.724-1.49-9.377-3.887-13.514c3.137-1.164,6.53-1.8,10.071-1.8c5.973,0,11.521,1.808,16.132,4.906
			C61.37,32.36,55.757,41.813,47.344,47.367"/>
		<path clip-path="url(#SVGID_4_)" fill="#1CA74F" d="M23.551,26.727c-0.417-0.088-0.844-0.153-1.277-0.188
			c3.804-3.452,8.206-6.257,13.031-8.244c0.036,0.061,0.07,0.121,0.106,0.182C30.784,20.193,26.715,23.059,23.551,26.727"/>
		<path clip-path="url(#SVGID_4_)" fill="#00914E" d="M31.128,33.231c-1.242-3.275-4.087-5.763-7.578-6.504
			c3.165-3.668,7.233-6.534,11.86-8.251c2.396,4.137,3.716,8.791,3.887,13.514C36.649,32.789,33.897,33.208,31.128,33.231"/>
		<path clip-path="url(#SVGID_4_)" fill="#2DB8D5" d="M11.357,46.644c-0.506-0.364-1-0.742-1.481-1.134
			c0.528-1.584,1.144-3.13,1.839-4.63c0.72,1.755,1.902,3.271,3.398,4.395C13.835,45.677,12.583,46.134,11.357,46.644"/>
		<path clip-path="url(#SVGID_4_)" fill="#2371A2" d="M7.583,59.341v-0.002V59.341z M7.583,59.439v-0.002V59.439 M7.583,59.491
			v-0.008V59.491 M7.582,59.537v-0.002V59.537 M7.582,59.593v-0.012V59.593 M7.582,59.64v-0.015V59.64"/>
		<path clip-path="url(#SVGID_4_)" fill="#006D9F" d="M41.225,103.036C21.884,98.099,7.581,80.561,7.581,59.683v-0.043v-0.013
			c0-0.012,0-0.022,0.001-0.033v-0.012v-0.045v-0.001v-0.044v-0.008c0-0.014,0-0.028,0-0.043v-0.002c0-0.032,0-0.064,0-0.097V59.34
			c0.006-0.729,0.028-1.454,0.069-2.175c1.443-0.682,2.44-2.151,2.44-3.854c0-1.29-0.572-2.445-1.477-3.227
			c0.185-0.839,0.391-1.671,0.621-2.493c0.697-0.333,1.404-0.65,2.121-0.948c1.705,1.227,3.537,2.289,5.472,3.162
			c1.285,8.894,6.612,16.481,14.061,20.835c-0.559,2.017-0.858,4.142-0.858,6.337c0,8.659,4.651,16.233,11.59,20.359
			c-0.696,1.579-1.303,3.198-1.815,4.85C40.273,102.479,40.746,102.761,41.225,103.036"/>
		<path clip-path="url(#SVGID_4_)" fill="#00638E" d="M30.889,70.641C23.441,66.287,18.113,58.7,16.829,49.806
			c3.979,1.797,8.395,2.797,13.044,2.797c6.454,0,12.459-1.926,17.472-5.236c3.533,1.641,6.814,3.728,9.774,6.189
			c-1.117-0.161-2.259-0.245-3.421-0.245C42.822,53.311,33.66,60.647,30.889,70.641"/>
		<path clip-path="url(#SVGID_4_)" fill="#276B45" d="M52.882,104.418h0.006H52.882 M52.842,104.419h0.007H52.842 M52.803,104.419
			h0.004H52.803 M52.762,104.419h0.008H52.762 M52.724,104.42h0.003H52.724 M52.595,104.421h0.01H52.595 M52.556,104.421h0.011
			H52.556 M52.514,104.421h0.015H52.514 M52.475,104.422c0.006,0,0.009-0.001,0.015-0.001
			C52.485,104.421,52.479,104.422,52.475,104.422 M52.435,104.422h0.017H52.435 M52.396,104.422h0.017H52.396 M52.357,104.422h0.017
			H52.357"/>
		<path clip-path="url(#SVGID_4_)" fill="#046946" d="M52.32,104.422c-3.83,0-7.547-0.481-11.095-1.387
			c-0.479-0.273-0.951-0.556-1.418-0.848c0.512-1.651,1.118-3.271,1.815-4.851c3.535,2.103,7.664,3.309,12.076,3.309
			c8.092,0,15.235-4.06,19.502-10.256c-0.178,3.333-0.721,6.569-1.591,9.671c-5.679,2.718-12.022,4.275-18.721,4.358h-0.005
			c-0.012,0.001-0.023,0.001-0.035,0.001h-0.006c-0.012,0-0.022,0-0.035,0h-0.005c-0.011,0-0.022,0-0.033,0h-0.007
			c-0.012,0-0.025,0-0.036,0.001h-0.002c-0.04,0-0.079,0.001-0.12,0.001h-0.009c-0.011,0-0.02,0-0.03,0h-0.011h-0.027h-0.015H52.49
			c-0.006,0-0.009,0-0.015,0h-0.021h-0.019h-0.022h-0.017h-0.022h-0.017H52.32"/>
		<path clip-path="url(#SVGID_4_)" fill="#006B91" d="M16.828,49.806c-1.935-0.873-3.766-1.935-5.471-3.162
			c1.226-0.509,2.478-0.967,3.756-1.368c0.447,0.336,0.921,0.637,1.42,0.898C16.557,47.405,16.656,48.617,16.828,49.806"/>
		<path clip-path="url(#SVGID_4_)" fill="#006282" d="M29.873,52.602c-4.65,0-9.066-1-13.045-2.797
			c-0.171-1.188-0.271-2.4-0.293-3.631c1.446,0.758,3.091,1.187,4.837,1.187c3.388,0,6.398-1.615,8.305-4.118
			c6.298,0.16,12.274,1.62,17.666,4.124C42.333,50.676,36.327,52.602,29.873,52.602"/>
		<path clip-path="url(#SVGID_4_)" fill="#D9DA00" d="M11.714,40.878c-0.499-1.218-0.773-2.55-0.773-3.948
			c0-3.426,1.651-6.467,4.202-8.368c1.081,0.703,2.192,1.324,3.328,1.865C15.76,33.562,13.479,37.075,11.714,40.878"/>
		<path clip-path="url(#SVGID_4_)" fill="#78B82C" d="M11.715,40.88c0,0,0-0.001,0-0.002c1.765-3.803,4.046-7.316,6.757-10.45
			c0,0,0.001,0,0.002,0C15.762,33.562,13.479,37.077,11.715,40.88"/>
		<path clip-path="url(#SVGID_4_)" fill="#9FC41D" d="M18.471,30.428c-1.135-0.542-2.247-1.163-3.328-1.866
			c1.738-1.296,3.894-2.063,6.228-2.063c0.304,0,0.604,0.013,0.9,0.038C20.928,27.756,19.659,29.055,18.471,30.428"/>
		<path clip-path="url(#SVGID_4_)" fill="#4BAD35" d="M18.473,30.429c0,0,0,0-0.002,0c1.188-1.373,2.458-2.672,3.801-3.891h0.001
			C20.929,27.756,19.661,29.056,18.473,30.429"/>
		<path clip-path="url(#SVGID_4_)" fill="#36A838" d="M15.113,45.275c-1.496-1.123-2.679-2.639-3.398-4.395
			c1.764-3.804,4.047-7.318,6.759-10.452c0.618,0.295,1.245,0.567,1.876,0.815c-2.31,4.028-3.681,8.664-3.81,13.61
			C16.061,44.987,15.585,45.127,15.113,45.275"/>
		<path clip-path="url(#SVGID_4_)" fill="#00913D" d="M16.539,44.854c0.13-4.945,1.5-9.583,3.812-13.609
			c3.404,1.335,6.979,1.988,10.532,1.988c0.081,0,0.164,0,0.245-0.001c0.436,1.15,0.675,2.396,0.675,3.698
			c0,2.374-0.792,4.562-2.126,6.314c-0.383-0.009-0.766-0.015-1.15-0.015C24.374,43.229,20.354,43.795,16.539,44.854"/>
		<path clip-path="url(#SVGID_4_)" fill="#00A23C" d="M20.35,31.244c-0.631-0.247-1.258-0.519-1.878-0.814
			c1.188-1.374,2.457-2.673,3.801-3.892c0.434,0.037,0.861,0.101,1.278,0.189C22.347,28.123,21.273,29.635,20.35,31.244"/>
		<path clip-path="url(#SVGID_4_)" fill="#008F3E" d="M30.883,33.233c-3.553,0-7.128-0.653-10.533-1.989
			c0.923-1.608,1.997-3.122,3.201-4.517c3.491,0.743,6.336,3.229,7.579,6.505C31.048,33.232,30.964,33.233,30.883,33.233"/>
		<path clip-path="url(#SVGID_4_)" fill="#006738" d="M16.535,46.174c-0.499-0.261-0.974-0.563-1.421-0.898
			c0.472-0.148,0.947-0.288,1.426-0.421c-0.006,0.259-0.011,0.516-0.011,0.775C16.528,45.811,16.532,45.993,16.535,46.174"/>
		<path clip-path="url(#SVGID_4_)" fill="#006037" d="M21.372,47.361c-1.746,0-3.392-0.429-4.837-1.187
			c-0.004-0.182-0.006-0.363-0.006-0.545c0-0.259,0.003-0.518,0.011-0.775c3.815-1.059,7.835-1.625,11.988-1.625
			c0.384,0,0.767,0.004,1.149,0.014C27.771,45.746,24.76,47.361,21.372,47.361"/>
		<path clip-path="url(#SVGID_4_)" fill="#4DB1D5" d="M71.177,15.68c-2.783-0.305-4.947-2.664-4.947-5.527
			c0-3.07,2.49-5.56,5.56-5.56c3.071,0,5.561,2.49,5.561,5.56c0,1.763-0.82,3.333-2.1,4.353c-0.325-0.08-0.664-0.122-1.013-0.122
			C73.037,14.384,71.952,14.88,71.177,15.68"/>
		<path clip-path="url(#SVGID_4_)" fill="#C6D53F" d="M5.831,57.573c-2.354,0-4.262-1.908-4.262-4.261
			c0-2.354,1.908-4.262,4.262-4.262c1.064,0,2.037,0.39,2.783,1.034c-0.503,2.3-0.829,4.664-0.963,7.081
			C7.099,57.427,6.481,57.573,5.831,57.573"/>
		<path clip-path="url(#SVGID_4_)" fill="#69B54E" d="M7.651,57.165c0.135-2.417,0.459-4.781,0.962-7.081c0,0,0.001,0,0.001,0.001
			C8.112,52.385,7.786,54.749,7.651,57.165"/>
		<path clip-path="url(#SVGID_4_)" fill="#046946" d="M7.651,57.165c0.135-2.417,0.461-4.78,0.964-7.08
			c0.905,0.782,1.477,1.937,1.477,3.226C10.092,55.013,9.095,56.482,7.651,57.165"/>
		<path clip-path="url(#SVGID_4_)" fill="#C6D53F" d="M76.67,22.145c-2.115-1.374-4.353-2.574-6.693-3.581
			c0.021-1.12,0.474-2.134,1.201-2.883c0.201,0.021,0.405,0.033,0.613,0.033c1.309,0,2.512-0.452,3.461-1.209
			c1.864,0.456,3.248,2.136,3.248,4.14C78.499,20.095,77.775,21.375,76.67,22.145"/>
		<path clip-path="url(#SVGID_4_)" fill="#69B54E" d="M76.668,22.146c-1.25-0.813-2.544-1.564-3.876-2.251
			c-0.418,0.685-0.82,1.381-1.203,2.088c-0.983-0.78-1.613-1.986-1.613-3.338c0-0.027,0-0.054,0-0.082
			C72.318,19.57,74.555,20.771,76.668,22.146C76.669,22.145,76.669,22.145,76.668,22.146"/>
		<path clip-path="url(#SVGID_4_)" fill="#3CAB3C" d="M74.238,22.906c-1.001,0-1.922-0.345-2.648-0.922
			c0.383-0.708,0.783-1.405,1.203-2.089c1.332,0.687,2.625,1.438,3.876,2.251C75.979,22.625,75.141,22.906,74.238,22.906"/>
		<path clip-path="url(#SVGID_4_)" fill="#3B9E4D" d="M71.79,15.714c-0.208,0-0.412-0.012-0.613-0.034
			c0.773-0.799,1.859-1.296,3.06-1.296c0.35,0,0.689,0.042,1.014,0.121C74.302,15.262,73.099,15.714,71.79,15.714"/>
		<path clip-path="url(#SVGID_4_)" fill="#A0D5DF" d="M34.187,10.153c-2.482,0-4.495-2.013-4.495-4.495s2.012-4.495,4.495-4.495
			c2.482,0,4.495,2.013,4.495,4.495S36.668,10.153,34.187,10.153"/>
		<path clip-path="url(#SVGID_4_)" fill="#78B82C" d="M70.463,72.348c-0.95-2.55-2.127-4.992-3.506-7.299
			c1.104-1.22,2.107-2.537,2.992-3.933c1.583,3.625,3.633,6.999,6.072,10.047C74.165,71.437,72.31,71.831,70.463,72.348"/>
		<path clip-path="url(#SVGID_4_)" fill="#00953C" d="M66.957,65.049c-2.611-4.368-5.946-8.255-9.838-11.493
			c4.533,0.656,8.65,2.597,11.971,5.442c0.269,0.715,0.556,1.421,0.86,2.118C69.064,62.512,68.062,63.83,66.957,65.049"/>
		<path clip-path="url(#SVGID_4_)" fill="#4BAD35" d="M73.201,90.39c0.043-0.801,0.064-1.609,0.064-2.421
			c0-5.494-0.99-10.757-2.802-15.62c1.847-0.518,3.702-0.912,5.559-1.185c0.283,0.353,0.569,0.7,0.862,1.044
			c0.316,1.541,0.481,3.136,0.481,4.77C77.365,81.957,75.827,86.577,73.201,90.39"/>
		<path clip-path="url(#SVGID_4_)" fill="#4BAD35" d="M76.021,71.163c-2.439-3.048-4.489-6.421-6.072-10.045
			c0.177-0.279,0.348-0.559,0.515-0.844c2.932,2.943,5.095,6.654,6.16,10.805C76.422,71.106,76.223,71.134,76.021,71.163"/>
		<path clip-path="url(#SVGID_4_)" fill="#00933D" d="M69.949,61.117c-0.304-0.697-0.59-1.403-0.86-2.118
			c0.475,0.407,0.934,0.833,1.375,1.276C70.297,60.559,70.126,60.839,69.949,61.117"/>
		<path clip-path="url(#SVGID_4_)" fill="#12A53A" d="M76.884,72.208c-0.292-0.344-0.579-0.692-0.863-1.045
			c0.201-0.029,0.401-0.058,0.602-0.084C76.719,71.452,76.806,71.829,76.884,72.208"/>
		<path clip-path="url(#SVGID_4_)" fill="#106938" d="M41.621,97.336c-6.939-4.125-11.59-11.698-11.59-20.358
			c0-2.194,0.299-4.32,0.858-6.337c4.285,2.507,9.272,3.941,14.593,3.941c8.519,0,16.177-3.677,21.475-9.532
			c1.378,2.306,2.555,4.747,3.505,7.298c-1.191,0.334-2.378,0.721-3.559,1.16C55.142,77.887,46.319,86.695,41.621,97.336"/>
		<path clip-path="url(#SVGID_4_)" fill="#006137" d="M45.482,74.582c-5.321,0-10.309-1.435-14.594-3.941
			c2.771-9.993,11.933-17.33,22.809-17.33c1.162,0,2.304,0.083,3.42,0.245c3.894,3.239,7.228,7.125,9.839,11.494
			C61.659,70.905,54.001,74.582,45.482,74.582"/>
		<path clip-path="url(#SVGID_4_)" fill="#006838" d="M53.698,100.645c-4.411,0-8.541-1.207-12.077-3.309
			c4.699-10.641,13.521-19.449,25.283-23.828c1.18-0.439,2.368-0.826,3.559-1.16c1.813,4.863,2.803,10.126,2.803,15.62
			c0,0.812-0.022,1.619-0.064,2.421C68.933,96.585,61.79,100.645,53.698,100.645"/>
		<path clip-path="url(#SVGID_4_)" fill="#FFFFFF" d="M66.314,42.823c2.702,0,4.9-2.198,4.9-4.901c0-2.702-2.198-4.9-4.9-4.9
			s-4.901,2.198-4.901,4.9C61.413,40.625,63.612,42.823,66.314,42.823"/>
		<path clip-path="url(#SVGID_4_)" fill="#FFFFFF" d="M81.153,58.459l-7.616-14.347c-0.081-0.152-0.178-0.288-0.287-0.413
			c-0.449-0.623-1.175-1.033-1.997-1.033h-0.952c-1.042,0.986-2.443,1.596-3.989,1.596c-1.544,0-2.946-0.609-3.987-1.596h-0.61
			c-0.7,0-1.33,0.298-1.78,0.771c-0.192,0.158-0.368,0.342-0.504,0.565l-7.438,12.189L46.1,45.09
			c-0.387-0.729-1.118-1.158-1.888-1.207c-0.192-0.056-0.395-0.077-0.602-0.055c-0.347,0.037-0.693,0.055-1.04,0.083
			c-1.006,0.829-2.292,1.327-3.693,1.327c-1.418,0-2.72-0.513-3.73-1.361c-0.026-0.002-0.053-0.004-0.082-0.006
			c-1.013-0.752-2.457-0.539-3.21,0.473l-9.903,13.318c-0.267,0.357-0.405,0.768-0.438,1.184c-0.05,0.62,0.147,1.247,0.575,1.723
			c0.099,0.112,0.211,0.214,0.334,0.307l0.248,0.184c0.441,0.327,0.962,0.461,1.475,0.438c0.618-0.029,1.214-0.303,1.639-0.803
			c0.032-0.037,0.069-0.067,0.098-0.107l5.867-7.89c-0.902,6.344-1.805,12.688-2.708,19.032c-0.12,0.81,0.917,1.641,2.313,1.79
			c0.38,0.041,0.761,0.056,1.141,0.091v10.662c0,1.348,1.102,2.45,2.45,2.45c1.348,0,2.45-1.103,2.45-2.45V73.885
			c0.934,0.021,1.865,0.028,2.8,0.014v10.373c0,1.348,1.102,2.45,2.45,2.45s2.451-1.103,2.451-2.45V73.653
			c0.562-0.047,1.125-0.074,1.686-0.134c1.394-0.148,2.433-0.98,2.312-1.79c-0.685-4.806-1.369-9.611-2.052-14.417l2.512,4.733
			c0.593,1.116,1.99,1.544,3.106,0.952l0.271-0.144c0.528-0.281,0.896-0.743,1.081-1.268c0.384-0.186,0.723-0.475,0.96-0.864
			l4.278-7.012v11.903c0,0.934,0.532,1.74,1.302,2.159l-3.228,16.016c-0.267,1.321,0.597,2.62,1.918,2.887
			c1.32,0.266,2.619-0.598,2.886-1.918l3.361-16.677h2.145v16.192c0,1.348,1.103,2.45,2.45,2.45s2.451-1.103,2.451-2.45V67.711
			c0.709-0.435,1.189-1.209,1.189-2.098V54.911l3.259,6.138c-0.053,0.232-0.085,0.471-0.085,0.718v23.132
			c0,0.504,0.408,0.913,0.912,0.913s0.912-0.408,0.912-0.913V62.261c0.458,0.062,0.938-0.009,1.376-0.241l0.272-0.145
			c0.55-0.292,0.931-0.78,1.107-1.335c0.405,0.285,0.671,0.726,0.671,1.226v2.247c0,0.504,0.408,0.911,0.912,0.911
			c0.504,0,0.912-0.407,0.912-0.911v-2.247C83.969,60.139,82.758,58.778,81.153,58.459"/>
		<path clip-path="url(#SVGID_4_)" fill="#FFFFFF" d="M38.876,43.801c2.703,0,4.901-2.199,4.901-4.901c0-2.702-2.199-4.9-4.901-4.9
			c-2.702,0-4.9,2.198-4.9,4.9C33.977,41.603,36.174,43.801,38.876,43.801"/>
		<path clip-path="url(#SVGID_4_)" fill="#0E4276" d="M138.251,48.094c-0.955,0-1.909-0.099-2.744-0.318l0.159-2.406
			c0.755,0.259,1.829,0.477,2.803,0.477c1.312,0,2.326-0.536,2.326-1.77c0-2.564-5.626-1.392-5.626-5.805
			c0-2.386,1.888-4.036,5.109-4.036c0.756,0,1.631,0.099,2.426,0.238l-0.14,2.267c-0.756-0.219-1.591-0.358-2.406-0.358
			c-1.491,0-2.247,0.676-2.247,1.63c0,2.406,5.646,1.511,5.646,5.707C143.559,46.245,141.551,48.094,138.251,48.094"/>
		<path clip-path="url(#SVGID_4_)" fill="#0E4276" d="M153.758,43.342h-6.124c-0.021,1.849,0.895,2.743,2.723,2.743
			c0.975,0,2.029-0.218,2.883-0.616l0.239,1.968c-1.054,0.417-2.307,0.636-3.54,0.636c-3.141,0-4.891-1.571-4.891-5.05
			c0-3.022,1.67-5.249,4.633-5.249c2.883,0,4.155,1.968,4.155,4.414C153.836,42.527,153.816,42.924,153.758,43.342 M149.602,39.644
			c-1.054,0-1.79,0.775-1.929,1.969h3.638C151.352,40.379,150.675,39.644,149.602,39.644"/>
		<path clip-path="url(#SVGID_4_)" fill="#0E4276" d="M162.027,47.875v-6.322c0-1.034-0.278-1.65-1.213-1.65
			c-1.292,0-2.307,1.471-2.307,3.2v4.772h-2.545v-9.881h2.405c0,0.457-0.039,1.232-0.139,1.749l0.021,0.021
			c0.596-1.173,1.75-1.989,3.36-1.989c2.227,0,2.941,1.432,2.941,3.161v6.939H162.027z"/>
		<path clip-path="url(#SVGID_4_)" fill="#0E4276" d="M168.586,36.721c-0.875,0-1.571-0.696-1.571-1.551
			c0-0.835,0.696-1.531,1.571-1.531c0.875,0,1.591,0.676,1.591,1.531S169.461,36.721,168.586,36.721 M167.314,37.994h2.545v9.881
			h-2.545V37.994z"/>
		<path clip-path="url(#SVGID_4_)" fill="#0E4276" d="M176.499,48.074c-2.803,0-4.613-1.452-4.613-4.971
			c0-3.081,2.048-5.308,5.05-5.308c2.803,0,4.612,1.551,4.612,4.95C181.548,45.847,179.461,48.074,176.499,48.074 M176.757,39.942
			c-1.133,0-2.247,0.874-2.247,2.903c0,2.028,0.736,3.061,2.207,3.061c1.253,0,2.207-1.013,2.207-3.022
			C178.924,40.976,178.249,39.942,176.757,39.942"/>
		<path clip-path="url(#SVGID_4_)" fill="#0E4276" d="M188.883,40.28c-1.829-0.377-2.744,0.815-2.744,3.56v4.036h-2.544v-9.881H186
			c0,0.497-0.059,1.292-0.179,1.988h0.04c0.478-1.252,1.432-2.346,3.142-2.207L188.883,40.28z"/>
		<path clip-path="url(#SVGID_4_)" fill="#0E4276" d="M198.523,43.342H192.4c-0.02,1.849,0.895,2.743,2.723,2.743
			c0.974,0,2.028-0.218,2.883-0.616l0.239,1.968c-1.054,0.417-2.307,0.636-3.539,0.636c-3.141,0-4.891-1.571-4.891-5.05
			c0-3.022,1.669-5.249,4.633-5.249c2.882,0,4.154,1.968,4.154,4.414C198.603,42.527,198.583,42.924,198.523,43.342 M194.368,39.644
			c-1.054,0-1.79,0.775-1.929,1.969h3.639C196.118,40.379,195.442,39.644,194.368,39.644"/>
		<path clip-path="url(#SVGID_4_)" fill="#0E4276" d="M206.793,47.875v-6.322c0-1.034-0.278-1.65-1.213-1.65
			c-1.292,0-2.307,1.471-2.307,3.2v4.772h-2.544v-9.881h2.406c0,0.457-0.04,1.232-0.139,1.749l0.02,0.021
			c0.597-1.173,1.75-1.989,3.36-1.989c2.227,0,2.942,1.432,2.942,3.161v6.939H206.793z"/>
		<path clip-path="url(#SVGID_4_)" fill="#0E4276" d="M213.79,48.074c-0.716,0-1.431-0.08-2.067-0.179l0.06-2.088
			c0.616,0.159,1.371,0.298,2.126,0.298c0.974,0,1.61-0.397,1.61-1.053c0-1.75-3.996-0.755-3.996-4.116
			c0-1.729,1.412-3.161,4.194-3.161c0.577,0,1.213,0.08,1.81,0.179l-0.079,2.008c-0.558-0.159-1.213-0.258-1.83-0.258
			c-0.994,0-1.471,0.398-1.471,1.013c0,1.611,4.056,0.896,4.056,4.097C218.204,46.761,216.494,48.074,213.79,48.074"/>
		<path clip-path="url(#SVGID_4_)" fill="#0E4276" d="M223.69,48.074c-2.187,0-2.863-0.795-2.863-3.102v-5.01h-1.709v-1.968h1.689
			v-3.042l2.545-0.676v3.718h2.406v1.968h-2.406v4.334c0,1.272,0.298,1.63,1.173,1.63c0.417,0,0.875-0.06,1.233-0.159v2.047
			C225.122,47.975,224.386,48.074,223.69,48.074"/>
		<path clip-path="url(#SVGID_4_)" fill="#0E4276" d="M229.098,36.721c-0.875,0-1.571-0.696-1.571-1.551
			c0-0.835,0.696-1.531,1.571-1.531c0.874,0,1.589,0.676,1.589,1.531S229.972,36.721,229.098,36.721 M227.825,37.994h2.544v9.881
			h-2.544V37.994z"/>
		<path clip-path="url(#SVGID_4_)" fill="#0E4276" d="M238.998,35.449c-0.398-0.139-0.855-0.179-1.233-0.179
			c-1.114,0-1.61,0.577-1.61,1.889v0.835h2.306v1.968h-2.306v7.913h-2.525v-7.913h-1.73v-1.968h1.73v-0.795
			c0-2.684,1.233-3.997,3.937-3.997c0.537,0,1.093,0.04,1.61,0.159L238.998,35.449z"/>
		<path clip-path="url(#SVGID_4_)" fill="#0E4276" d="M243.308,48.074c-2.187,0-2.863-0.795-2.863-3.102v-5.01h-1.709v-1.968h1.69
			v-3.042l2.544-0.676v3.718h2.406v1.968h-2.406v4.334c0,1.272,0.298,1.63,1.174,1.63c0.417,0,0.874-0.06,1.232-0.159v2.047
			C244.739,47.975,244.004,48.074,243.308,48.074"/>
		<path clip-path="url(#SVGID_4_)" fill="#0E4276" d="M260.223,47.875l-3.936-6.78c-0.596-1.014-1.054-2.008-1.452-2.883
			c0.08,1.153,0.12,3.261,0.12,4.871v4.792h-2.506v-13.42h3.36l3.738,6.402c0.617,1.033,1.153,2.146,1.651,3.161
			c-0.1-1.353-0.14-3.738-0.14-5.388v-4.175h2.505v13.42H260.223z"/>
		<path clip-path="url(#SVGID_4_)" fill="#0E4276" d="M274.338,43.342h-6.123c-0.02,1.849,0.895,2.743,2.723,2.743
			c0.974,0,2.028-0.218,2.883-0.616l0.239,1.968c-1.054,0.417-2.307,0.636-3.539,0.636c-3.142,0-4.891-1.571-4.891-5.05
			c0-3.022,1.669-5.249,4.633-5.249c2.882,0,4.154,1.968,4.154,4.414C274.417,42.527,274.397,42.924,274.338,43.342 M270.182,39.644
			c-1.053,0-1.79,0.775-1.928,1.969h3.638C271.932,40.379,271.256,39.644,270.182,39.644"/>
		<path clip-path="url(#SVGID_4_)" fill="#0E4276" d="M282.746,47.875c0-0.458,0.02-1.233,0.119-1.75l-0.02-0.021
			c-0.597,1.174-1.729,1.989-3.359,1.989c-2.227,0-2.943-1.432-2.943-3.161v-6.938h2.525v6.322c0,1.034,0.278,1.65,1.232,1.65
			c1.292,0,2.286-1.472,2.286-3.201v-4.771h2.545v9.881H282.746z"/>
		<path clip-path="url(#SVGID_4_)" fill="#0E4276" d="M293.938,47.875v-6.322c0-1.034-0.278-1.65-1.213-1.65
			c-1.292,0-2.307,1.471-2.307,3.2v4.772h-2.544V33.361h2.544v4.235c0,0.596-0.039,1.431-0.178,2.008l0.039,0.02
			c0.577-1.113,1.709-1.849,3.241-1.849c2.227,0,2.942,1.432,2.942,3.161v6.939H293.938z"/>
		<path clip-path="url(#SVGID_4_)" fill="#0E4276" d="M304.514,47.875c0-0.576,0.021-1.153,0.099-1.669l-0.02-0.02
			c-0.477,1.113-1.689,1.889-3.161,1.889c-1.789,0-2.822-1.014-2.822-2.605c0-2.366,2.346-3.618,5.705-3.618v-0.536
			c0-1.035-0.496-1.571-1.928-1.571c-0.895,0-2.088,0.298-2.923,0.775l-0.219-2.128c0.994-0.358,2.267-0.616,3.538-0.616
			c3.182,0,4.077,1.292,4.077,3.439v4.116c0,0.795,0.02,1.73,0.059,2.545H304.514z M304.314,43.501c-2.684,0-3.279,0.775-3.279,1.57
			c0,0.636,0.437,1.054,1.172,1.054c1.252,0,2.107-1.192,2.107-2.386V43.501z"/>
		<path clip-path="url(#SVGID_4_)" fill="#0E4276" d="M315.845,47.875c0-0.458,0.021-1.233,0.12-1.75l-0.021-0.021
			c-0.596,1.174-1.729,1.989-3.359,1.989c-2.227,0-2.943-1.432-2.943-3.161v-6.938h2.525v6.322c0,1.034,0.279,1.65,1.233,1.65
			c1.292,0,2.285-1.472,2.285-3.201v-4.771h2.546v9.881H315.845z"/>
		<path clip-path="url(#SVGID_4_)" fill="#0E4276" d="M322.683,48.074c-0.715,0-1.431-0.08-2.067-0.179l0.06-2.088
			c0.616,0.159,1.372,0.298,2.128,0.298c0.974,0,1.609-0.397,1.609-1.053c0-1.75-3.996-0.755-3.996-4.116
			c0-1.729,1.412-3.161,4.195-3.161c0.577,0,1.213,0.08,1.81,0.179l-0.079,2.008c-0.558-0.159-1.214-0.258-1.829-0.258
			c-0.994,0-1.472,0.398-1.472,1.013c0,1.611,4.056,0.896,4.056,4.097C327.097,46.761,325.387,48.074,322.683,48.074"/>
		<path clip-path="url(#SVGID_4_)" fill="#0E4276" d="M337.275,43.342h-6.125c-0.019,1.849,0.896,2.743,2.726,2.743
			c0.974,0,2.026-0.218,2.882-0.616l0.239,1.968c-1.055,0.417-2.307,0.636-3.54,0.636c-3.141,0-4.89-1.571-4.89-5.05
			c0-3.022,1.669-5.249,4.632-5.249c2.883,0,4.155,1.968,4.155,4.414C337.354,42.527,337.334,42.924,337.275,43.342 M333.119,39.644
			c-1.053,0-1.788,0.775-1.928,1.969h3.638C334.869,40.379,334.192,39.644,333.119,39.644"/>
		<path clip-path="url(#SVGID_4_)" fill="#0E4276" d="M345.544,47.875v-6.322c0-1.034-0.277-1.65-1.212-1.65
			c-1.293,0-2.307,1.471-2.307,3.2v4.772h-2.545v-9.881h2.405c0,0.457-0.039,1.232-0.139,1.749l0.02,0.021
			c0.597-1.173,1.749-1.989,3.36-1.989c2.227,0,2.942,1.432,2.942,3.161v6.939H345.544z"/>
		<path clip-path="url(#SVGID_4_)" d="M140.755,58.497c-0.416-0.128-0.878-0.175-1.292-0.175c-1.307,0-1.866,0.765-1.866,2.391
			v0.574h2.44v0.797h-2.44v7.129h-1.005v-7.129h-1.817v-0.797h1.817v-0.542c0-2.217,1.117-3.253,2.951-3.253
			c0.463,0,0.876,0.047,1.307,0.143L140.755,58.497z"/>
		<path clip-path="url(#SVGID_4_)" d="M147.993,69.214c0-0.542,0.048-1.34,0.144-1.834l-0.032-0.016
			c-0.446,1.212-1.467,1.993-2.87,1.993c-1.835,0-2.392-1.131-2.392-2.55v-5.519h1.004v5.151c0,1.324,0.351,2.105,1.612,2.105
			c1.499,0,2.551-1.467,2.551-3.461v-3.796h1.004v7.927H147.993z M144.405,59.405c-0.398,0-0.685-0.303-0.685-0.685
			c0-0.398,0.287-0.686,0.685-0.686c0.383,0,0.686,0.288,0.686,0.686C145.091,59.103,144.788,59.405,144.405,59.405 M147.339,59.405
			c-0.382,0-0.687-0.303-0.687-0.685c0-0.398,0.304-0.686,0.687-0.686c0.383,0,0.686,0.288,0.686,0.686
			C148.025,59.103,147.722,59.405,147.339,59.405"/>
		<path clip-path="url(#SVGID_4_)" d="M156.857,62.133c-1.802-0.288-2.663,1.164-2.663,3.924v3.157h-1.005v-7.926h1.022
			c0,0.558-0.064,1.371-0.208,2.073l0.032,0.017c0.304-1.181,1.132-2.424,2.87-2.217L156.857,62.133z"/>
		<path clip-path="url(#SVGID_4_)" d="M166.024,69.342c-0.605,0-1.212-0.049-1.69-0.16l0.033-0.957
			c0.51,0.143,1.164,0.255,1.785,0.255c1.229,0,2.09-0.542,2.09-1.452c0-2.025-4.004-0.749-4.004-3.604
			c0-1.292,1.069-2.265,3.031-2.265c0.495,0,1.069,0.063,1.58,0.175l-0.048,0.894c-0.527-0.16-1.117-0.272-1.675-0.272
			c-1.229,0-1.866,0.527-1.866,1.355c0,2.042,4.019,0.829,4.019,3.573C169.278,68.241,168.066,69.342,166.024,69.342"/>
		<path clip-path="url(#SVGID_4_)" d="M178.542,64.876h-5.375c-0.096,2.567,0.876,3.62,2.727,3.62c0.83,0,1.723-0.224,2.297-0.51
			l0.096,0.894c-0.718,0.287-1.579,0.461-2.568,0.461c-2.361,0-3.62-1.275-3.62-4.066c0-2.36,1.276-4.114,3.429-4.114
			c2.153,0,3.046,1.483,3.046,3.189C178.573,64.461,178.573,64.652,178.542,64.876 M175.463,61.926c-1.18,0-2.009,0.845-2.233,2.168
			h4.275C177.536,62.818,176.755,61.926,175.463,61.926"/>
		<path clip-path="url(#SVGID_4_)" d="M187.246,69.213v-5.151c0-1.324-0.366-2.105-1.611-2.105c-1.499,0-2.551,1.468-2.551,3.461
			v3.795h-1.005V57.571h1.005v3.987c0,0.542-0.032,1.18-0.128,1.58l0.032,0.016c0.463-1.228,1.483-2.01,2.871-2.01
			c1.833,0,2.392,1.132,2.392,2.552v5.518H187.246z"/>
		<path clip-path="url(#SVGID_4_)" d="M195.042,69.31c-1.053,0-1.771-0.096-2.568-0.287V57.571h1.004v4.163
			c0,0.43-0.048,1.036-0.144,1.435l0.032,0.016c0.446-1.275,1.516-2.025,2.775-2.025c1.865,0,2.935,1.26,2.935,3.732
			C199.077,67.762,197.465,69.31,195.042,69.31 M195.983,61.973c-1.707,0-2.504,1.994-2.504,3.413v2.886
			c0.494,0.176,1.021,0.24,1.659,0.24c1.739,0,2.887-1.037,2.887-3.524C198.024,63.106,197.387,61.973,195.983,61.973"/>
		<path clip-path="url(#SVGID_4_)" d="M208.18,64.876h-5.374c-0.096,2.567,0.876,3.62,2.727,3.62c0.83,0,1.723-0.224,2.296-0.51
			l0.095,0.894c-0.717,0.287-1.578,0.461-2.567,0.461c-2.36,0-3.62-1.275-3.62-4.066c0-2.36,1.276-4.114,3.429-4.114
			c2.153,0,3.046,1.483,3.046,3.189C208.212,64.461,208.212,64.652,208.18,64.876 M205.102,61.926c-1.18,0-2.009,0.845-2.232,2.168
			h4.274C207.175,62.818,206.395,61.926,205.102,61.926"/>
		<path clip-path="url(#SVGID_4_)" d="M217.364,64.876h-5.375c-0.096,2.567,0.877,3.62,2.727,3.62c0.83,0,1.723-0.224,2.297-0.51
			l0.096,0.894c-0.718,0.287-1.578,0.461-2.567,0.461c-2.36,0-3.62-1.275-3.62-4.066c0-2.36,1.275-4.114,3.428-4.114
			s3.046,1.483,3.046,3.189C217.396,64.461,217.396,64.652,217.364,64.876 M214.286,61.926c-1.181,0-2.01,0.845-2.233,2.168h4.275
			C216.359,62.818,215.577,61.926,214.286,61.926"/>
		<path clip-path="url(#SVGID_4_)" d="M221.412,59.772c-0.399,0-0.718-0.319-0.718-0.717s0.319-0.718,0.718-0.718
			c0.398,0,0.718,0.304,0.718,0.718C222.13,59.453,221.811,59.772,221.412,59.772 M220.902,61.287h1.004v7.927h-1.004V61.287z"/>
		<path clip-path="url(#SVGID_4_)" d="M231.298,69.213v-5.151c0-1.324-0.367-2.105-1.612-2.105c-1.498,0-2.55,1.468-2.55,3.461
			v3.795h-1.005v-7.926h1.021c0,0.542-0.047,1.34-0.143,1.834l0.031,0.017c0.447-1.212,1.466-1.994,2.87-1.994
			c1.835,0,2.393,1.132,2.393,2.552v5.518H231.298z"/>
		<path clip-path="url(#SVGID_4_)" d="M238.597,69.325c-1.547,0-1.978-0.702-1.978-2.296v-4.944h-1.818v-0.797h1.802v-2.679
			l1.005-0.272v2.951h2.44v0.797h-2.44v4.449c0,1.517,0.271,1.898,1.26,1.898c0.415,0,0.829-0.047,1.18-0.143v0.893
			C239.633,69.261,239.091,69.325,238.597,69.325"/>
		<path clip-path="url(#SVGID_4_)" d="M247.031,62.133c-1.802-0.288-2.663,1.164-2.663,3.924v3.157h-1.005v-7.926h1.021
			c0,0.558-0.064,1.371-0.207,2.073l0.031,0.017c0.302-1.181,1.132-2.424,2.87-2.217L247.031,62.133z"/>
		<path clip-path="url(#SVGID_4_)" d="M254.046,69.214c0-0.638,0.016-1.276,0.095-1.739l-0.032-0.016
			c-0.382,1.037-1.419,1.883-2.806,1.883c-1.229,0-2.154-0.623-2.154-1.883c0-1.61,1.691-2.775,4.88-2.775v-0.702
			c0-1.292-0.463-2.009-1.882-2.009c-0.765,0-1.723,0.239-2.424,0.702l-0.111-0.91c0.749-0.351,1.659-0.606,2.727-0.606
			c2.105,0,2.695,1.085,2.695,2.552v3.046c0,0.813,0.016,1.739,0.032,2.457H254.046z M250.841,59.405
			c-0.398,0-0.685-0.303-0.685-0.685c0-0.398,0.287-0.686,0.685-0.686c0.382,0,0.686,0.288,0.686,0.686
			C251.526,59.103,251.223,59.405,250.841,59.405 M254.03,65.45c-3.173,0-3.86,1.021-3.86,1.802c0,0.782,0.542,1.26,1.372,1.26
			c1.5,0,2.488-1.5,2.488-2.95V65.45z M253.775,59.405c-0.383,0-0.687-0.303-0.687-0.685c0-0.398,0.304-0.686,0.687-0.686
			s0.685,0.288,0.685,0.686C254.46,59.103,254.158,59.405,253.775,59.405"/>
		<path clip-path="url(#SVGID_4_)" d="M261.874,69.31c-1.674,0-3.397-0.718-3.397-3.78c0-2.632,1.308-4.339,3.86-4.339
			c0.654,0,1.34,0.096,1.914,0.272l-0.112,0.893c-0.542-0.223-1.212-0.382-1.913-0.382c-1.787,0-2.679,1.339-2.679,3.348
			c0,1.707,0.51,3.126,2.536,3.126c0.749,0,1.546-0.191,2.105-0.479l0.095,0.877C263.756,69.054,262.879,69.31,261.874,69.31"/>
		<path clip-path="url(#SVGID_4_)" d="M272.669,69.213v-5.151c0-1.324-0.367-2.105-1.611-2.105c-1.499,0-2.551,1.468-2.551,3.461
			v3.795h-1.005V57.571h1.005v3.987c0,0.542-0.032,1.18-0.127,1.58l0.031,0.016c0.462-1.228,1.483-2.01,2.871-2.01
			c1.834,0,2.391,1.132,2.391,2.552v5.518H272.669z"/>
		<path clip-path="url(#SVGID_4_)" d="M279.967,69.325c-1.547,0-1.977-0.702-1.977-2.296v-4.944h-1.819v-0.797h1.803v-2.679
			l1.004-0.272v2.951h2.44v0.797h-2.44v4.449c0,1.517,0.271,1.898,1.26,1.898c0.415,0,0.829-0.047,1.18-0.143v0.893
			C281.004,69.261,280.462,69.325,279.967,69.325"/>
		<path clip-path="url(#SVGID_4_)" d="M285.244,59.772c-0.399,0-0.718-0.319-0.718-0.717s0.318-0.718,0.718-0.718
			c0.399,0,0.717,0.304,0.717,0.718C285.961,59.453,285.643,59.772,285.244,59.772 M284.733,61.287h1.005v7.927h-1.005V61.287z"/>
		<path clip-path="url(#SVGID_4_)" d="M292.435,73.409c-1.993,0-3.286-0.83-3.286-2.329c0-1.021,0.639-1.754,1.404-2.153
			c-0.494-0.239-0.797-0.638-0.797-1.148c0-0.527,0.303-0.989,0.861-1.244c-0.798-0.479-1.18-1.292-1.18-2.33
			c0-1.657,1.292-3.045,3.413-3.045c0.415,0,0.734,0.049,1.148,0.127h2.695v0.797h-1.5c0.51,0.383,0.83,1.069,0.83,1.898
			c0,1.675-1.149,2.999-3.446,2.999c-0.398,0-0.861-0.064-1.164-0.144c-0.431,0.175-0.621,0.462-0.621,0.766
			c0,0.495,0.478,0.718,1.466,0.718h1.627c1.723,0,2.663,0.844,2.663,2.201C296.549,72.18,294.811,73.409,292.435,73.409
			 M293.615,69.214h-2.232c-0.734,0.383-1.229,0.989-1.229,1.691c0,1.1,1.069,1.657,2.455,1.657c1.836,0,2.919-0.78,2.919-1.913
			C295.529,69.74,294.891,69.214,293.615,69.214 M292.786,61.941c-1.468,0-2.329,0.909-2.329,2.153c0,1.372,0.829,2.105,2.264,2.105
			c1.387,0,2.281-0.75,2.281-2.105C295.002,62.739,294.189,61.941,292.786,61.941"/>
		<path clip-path="url(#SVGID_4_)" d="M302.271,69.325c-1.547,0-1.978-0.702-1.978-2.296v-4.944h-1.817v-0.797h1.802v-2.679
			l1.004-0.272v2.951h2.44v0.797h-2.44v4.449c0,1.517,0.271,1.898,1.261,1.898c0.415,0,0.828-0.047,1.18-0.143v0.893
			C303.309,69.261,302.767,69.325,302.271,69.325"/>
		<path clip-path="url(#SVGID_4_)" d="M312.684,64.876h-5.374c-0.096,2.567,0.877,3.62,2.728,3.62c0.829,0,1.722-0.224,2.296-0.51
			l0.096,0.894c-0.718,0.287-1.579,0.461-2.568,0.461c-2.359,0-3.619-1.275-3.619-4.066c0-2.36,1.275-4.114,3.429-4.114
			c2.152,0,3.045,1.483,3.045,3.189C312.715,64.461,312.715,64.652,312.684,64.876 M309.605,61.926c-1.18,0-2.01,0.845-2.232,2.168
			h4.274C311.679,62.818,310.897,61.926,309.605,61.926"/>
		<path clip-path="url(#SVGID_4_)" d="M326.442,69.213c0-0.542,0.048-1.339,0.145-1.834l-0.032-0.016
			c-0.446,1.212-1.467,1.994-2.87,1.994c-1.835,0-2.394-1.132-2.394-2.552v-5.518h1.006v5.151c0,1.324,0.351,2.105,1.61,2.105
			c1.499,0,2.551-1.467,2.551-3.461v-3.795h1.005v7.926H326.442z"/>
		<path clip-path="url(#SVGID_4_)" d="M336.806,69.213v-5.151c0-1.324-0.366-2.105-1.61-2.105c-1.5,0-2.552,1.468-2.552,3.461v3.795
			h-1.005v-7.926h1.021c0,0.542-0.047,1.34-0.143,1.834l0.032,0.017c0.446-1.212,1.466-1.994,2.869-1.994
			c1.835,0,2.393,1.132,2.393,2.552v5.518H336.806z"/>
		<path clip-path="url(#SVGID_4_)" d="M346.771,69.213c0-0.51,0.048-1.323,0.143-1.818l-0.031-0.016
			c-0.432,1.196-1.483,1.961-2.759,1.961c-1.979,0-2.935-1.419-2.935-3.731c0-2.871,1.61-4.418,4.034-4.418
			c0.494,0,0.989,0.032,1.563,0.096v-3.716h1.005v11.642H346.771z M346.787,62.196c-0.574-0.143-1.133-0.207-1.658-0.207
			c-1.739,0-2.871,1.037-2.871,3.525c0,1.881,0.638,3.014,2.025,3.014c1.706,0,2.504-1.994,2.504-3.414V62.196z"/>
		<path clip-path="url(#SVGID_4_)" d="M138.777,88.442c-1.052,0-1.771-0.096-2.567-0.287V76.704h1.004v4.163
			c0,0.431-0.047,1.037-0.143,1.435l0.031,0.017c0.447-1.275,1.516-2.026,2.776-2.026c1.866,0,2.935,1.261,2.935,3.732
			C142.813,86.895,141.201,88.442,138.777,88.442 M139.718,81.106c-1.706,0-2.504,1.993-2.504,3.413v2.887
			c0.495,0.176,1.021,0.24,1.659,0.24c1.739,0,2.887-1.037,2.887-3.525C141.76,82.238,141.122,81.106,139.718,81.106"/>
		<rect x="146.222" y="76.704" clip-path="url(#SVGID_4_)" width="1.004" height="11.642"/>
		<path clip-path="url(#SVGID_4_)" d="M151.914,78.905c-0.398,0-0.718-0.319-0.718-0.718c0-0.398,0.32-0.717,0.718-0.717
			s0.718,0.302,0.718,0.717C152.632,78.586,152.313,78.905,151.914,78.905 M151.404,80.42h1.004v7.926h-1.004V80.42z"/>
		<path clip-path="url(#SVGID_4_)" d="M161.752,88.346v-5.151c0-1.325-0.366-2.106-1.61-2.106c-1.499,0-2.551,1.468-2.551,3.461
			v3.796h-1.005v-7.927h1.021c0,0.542-0.048,1.34-0.143,1.834l0.032,0.017c0.445-1.212,1.466-1.993,2.871-1.993
			c1.834,0,2.392,1.131,2.392,2.551v5.518H161.752z"/>
		<path clip-path="url(#SVGID_4_)" d="M171.717,88.346c0-0.51,0.048-1.324,0.144-1.818l-0.033-0.017
			c-0.43,1.197-1.483,1.962-2.758,1.962c-1.978,0-2.934-1.42-2.934-3.732c0-2.871,1.61-4.418,4.034-4.418
			c0.495,0,0.989,0.032,1.563,0.096v-3.716h1.004v11.642H171.717z M171.733,81.329c-0.575-0.144-1.133-0.208-1.66-0.208
			c-1.738,0-2.87,1.037-2.87,3.525c0,1.882,0.638,3.014,2.025,3.014c1.706,0,2.504-1.994,2.504-3.413V81.329z"/>
		<path clip-path="url(#SVGID_4_)" d="M182.559,84.008h-5.375c-0.095,2.567,0.877,3.621,2.728,3.621
			c0.829,0,1.722-0.224,2.296-0.511l0.095,0.894c-0.717,0.287-1.578,0.462-2.567,0.462c-2.36,0-3.62-1.276-3.62-4.066
			c0-2.361,1.275-4.115,3.428-4.115s3.046,1.483,3.046,3.19C182.591,83.594,182.591,83.785,182.559,84.008 M179.481,81.058
			c-1.181,0-2.009,0.845-2.232,2.169h4.274C181.555,81.951,180.772,81.058,179.481,81.058"/>
		<path clip-path="url(#SVGID_4_)" d="M201.326,88.346l-1.005-6.969c-0.191-1.388-0.287-2.169-0.335-2.727h-0.031
			c-0.096,0.398-0.271,0.989-0.51,1.691l-2.712,8.005h-1.228l-2.568-7.512c-0.255-0.766-0.558-1.579-0.669-2.185h-0.017
			c-0.047,0.829-0.159,1.707-0.287,2.822l-0.813,6.874h-1.069l1.499-10.765h1.34l2.616,7.655c0.271,0.797,0.494,1.498,0.605,2.057
			h0.032c0.159-0.718,0.319-1.164,0.574-1.914l2.679-7.798h1.403l1.58,10.765H201.326z"/>
		<path clip-path="url(#SVGID_4_)" d="M211.672,84.008h-5.375c-0.095,2.567,0.877,3.621,2.727,3.621c0.83,0,1.723-0.224,2.297-0.511
			l0.095,0.894c-0.718,0.287-1.578,0.462-2.567,0.462c-2.36,0-3.62-1.276-3.62-4.066c0-2.361,1.275-4.115,3.428-4.115
			c2.154,0,3.047,1.483,3.047,3.19C211.704,83.594,211.704,83.785,211.672,84.008 M208.594,81.058c-1.181,0-2.009,0.845-2.232,2.169
			h4.274C210.667,81.951,209.886,81.058,208.594,81.058"/>
		<path clip-path="url(#SVGID_4_)" d="M220.33,88.346v-5.151c0-1.325-0.367-2.106-1.612-2.106c-1.498,0-2.551,1.468-2.551,3.461
			v3.796h-1.005v-7.927h1.021c0,0.542-0.047,1.34-0.143,1.834l0.032,0.017c0.446-1.212,1.468-1.993,2.87-1.993
			c1.834,0,2.392,1.131,2.392,2.551v5.518H220.33z"/>
		<path clip-path="url(#SVGID_4_)" d="M226.673,88.474c-0.606,0-1.212-0.047-1.691-0.16l0.032-0.957
			c0.511,0.144,1.165,0.255,1.786,0.255c1.229,0,2.09-0.543,2.09-1.452c0-2.025-4.004-0.75-4.004-3.604
			c0-1.292,1.069-2.265,3.031-2.265c0.494,0,1.069,0.063,1.579,0.175l-0.047,0.894c-0.527-0.16-1.116-0.272-1.675-0.272
			c-1.228,0-1.866,0.527-1.866,1.356c0,2.041,4.019,0.829,4.019,3.573C229.927,87.374,228.715,88.474,226.673,88.474"/>
		<path clip-path="url(#SVGID_4_)" d="M236.097,88.442c-1.674,0-3.397-0.718-3.397-3.78c0-2.632,1.308-4.338,3.86-4.338
			c0.653,0,1.338,0.096,1.914,0.271l-0.112,0.893c-0.543-0.223-1.212-0.382-1.914-0.382c-1.787,0-2.68,1.339-2.68,3.349
			c0,1.706,0.51,3.126,2.536,3.126c0.749,0,1.547-0.192,2.105-0.479l0.095,0.878C237.979,88.187,237.101,88.442,236.097,88.442"/>
		<path clip-path="url(#SVGID_4_)" d="M246.843,88.346v-5.151c0-1.325-0.366-2.106-1.611-2.106c-1.499,0-2.551,1.468-2.551,3.461
			v3.796h-1.005V76.704h1.005v3.987c0,0.542-0.032,1.18-0.127,1.579l0.031,0.016c0.463-1.228,1.483-2.009,2.871-2.009
			c1.834,0,2.391,1.131,2.391,2.551v5.518H246.843z"/>
		<path clip-path="url(#SVGID_4_)" d="M257.67,84.008h-5.375c-0.095,2.567,0.876,3.621,2.727,3.621c0.83,0,1.723-0.224,2.297-0.511
			l0.095,0.894c-0.718,0.287-1.579,0.462-2.567,0.462c-2.36,0-3.62-1.276-3.62-4.066c0-2.361,1.275-4.115,3.429-4.115
			c2.153,0,3.045,1.483,3.045,3.19C257.701,83.594,257.701,83.785,257.67,84.008 M254.592,81.058c-1.18,0-2.01,0.845-2.233,2.169
			h4.274C256.664,81.951,255.883,81.058,254.592,81.058"/>
		<path clip-path="url(#SVGID_4_)" d="M266.326,88.346v-5.151c0-1.325-0.366-2.106-1.611-2.106c-1.499,0-2.551,1.468-2.551,3.461
			v3.796h-1.005v-7.927h1.021c0,0.542-0.048,1.34-0.144,1.834l0.032,0.017c0.446-1.212,1.467-1.993,2.871-1.993
			c1.834,0,2.393,1.131,2.393,2.551v5.518H266.326z"/>
	</g>
</g>
</svg>
