<?xml version="1.0" encoding="utf-8"?>
<!-- Generator: Adobe Illustrator 16.0.0, SVG Export Plug-In . SVG Version: 6.00 Build 0)  -->
<!DOCTYPE svg PUBLIC "-//W3C//DTD SVG 1.1//EN" "http://www.w3.org/Graphics/SVG/1.1/DTD/svg11.dtd">
<svg version="1.1" id="Ebene_1" xmlns="http://www.w3.org/2000/svg" xmlns:xlink="http://www.w3.org/1999/xlink" x="0px" y="0px"
	 width="40px" height="40px" viewBox="0 0 40 40" enable-background="new 0 0 40 40" xml:space="preserve">
<g>
	<path fill="#010202" d="M20,0C8.975,0,0,8.976,0,20c0,11.033,8.975,20,20,20c11.033,0,20-8.967,20-20C40,8.976,31.032,0,20,0z
		 M20,38.848C9.611,38.848,1.161,30.389,1.161,20S9.611,1.162,20,1.162c10.389,0,18.848,8.451,18.848,18.839
		S30.389,38.848,20,38.848z"/>
	<polygon fill="#010202" points="22.348,14.747 27.715,19.423 9.851,19.423 9.851,20.576 27.715,20.576 22.348,25.254 
		23.105,26.127 30.148,20 23.105,13.874 	"/>
</g>
</svg>
