<?xml version="1.0" encoding="utf-8"?>
<!-- Generator: Adobe Illustrator 22.1.0, SVG Export Plug-In . SVG Version: 6.00 Build 0)  -->
<svg version="1.1" xmlns="http://www.w3.org/2000/svg" xmlns:xlink="http://www.w3.org/1999/xlink" x="0px" y="0px"
	 viewBox="0 0 447 357.5" style="enable-background:new 0 0 447 357.5;" xml:space="preserve">
<style type="text/css">
	.st0{opacity:0.81;}
	.st1{opacity:0.93;}
	.st2{opacity:0.65;}
	.st3{opacity:0.53;}
	.st4{opacity:0.42;}
	.st5{opacity:0.66;}
	.st6{opacity:0.69;}
	.st7{opacity:0.34;}
	.st8{opacity:0.63;}
	.st9{opacity:0.88;}
	.st10{opacity:0.37;}
	.st11{fill:#27357D;}
	.st12{fill:#E4E705;}
	.st13{fill:#B66D32;}
	.st14{fill:#0AD5EA;}
	.st15{fill:#4BA541;}
	.st16{fill:#283582;}
	.st17{font-family:'ProximaNovaT-Thin';}
	.st18{font-size:12.0434px;}
</style>
<g id="Layer_1">
	<g id="New_Symbol">
	</g>
	<g id="New_Symbol_1_">
		<g id="New_Symbol_1">
			<g id="New_Symbol_2">
				<g id="New_Symbol_4">
				</g>
			</g>
		</g>
		<g id="New_Symbol_1_1_">
			<g id="New_Symbol_28">
			</g>
			<g id="New_Symbol_5">
				<g id="New_Symbol_6">
					<g id="New_Symbol_7">
						<g id="New_Symbol_8">
							<g id="New_Symbol_9">
								<g id="New_Symbol_10">
									<g id="New_Symbol_11">
									</g>
								</g>
							</g>
						</g>
					</g>
				</g>
			</g>
		</g>
		<g id="New_Symbol_8_1_">
			<g id="New_Symbol_5_1_">
				<g id="New_Symbol_7_1_">
					<g id="New_Symbol_4_1_">
					</g>
				</g>
			</g>
		</g>
		<g id="New_Symbol_2_">
			<g id="New_Symbol_1_2_">
				<g id="New_Symbol_2_1_">
					<g id="New_Symbol_4_2_">
						<g id="New_Symbol_4_3_">
							<g id="New_Symbol_5_2_">
							</g>
						</g>
					</g>
				</g>
			</g>
		</g>
	</g>
	<g id="New_Symbol_3_">
		<g id="New_Symbol_4_">
			<g id="New_Symbol_1_3_">
				<g id="New_Symbol_2_2_">
					<g id="New_Symbol_2_3_">
					</g>
				</g>
				<g id="New_Symbol_4_4_">
					<g id="New_Symbol_5_3_">
						<g id="New_Symbol_6_1_">
							<g id="New_Symbol_7_2_">
								<g id="New_Symbol_8_2_">
									<g id="New_Symbol_10_1_">
									</g>
								</g>
							</g>
						</g>
					</g>
				</g>
			</g>
			<g id="New_Symbol_9_2_">
			</g>
			<g id="New_Symbol_6_">
			</g>
		</g>
		<g id="New_Symbol_11_1_">
		</g>
		<g id="New_Symbol_1_4_">
			<g id="New_Symbol_2_4_">
				<g id="New_Symbol_5_">
					<g id="New_Symbol_9_1_">
					</g>
				</g>
			</g>
		</g>
		<g id="New_Symbol_4_5_">
		</g>
		<g id="New_Symbol_4_6_">
		</g>
		<g id="New_Symbol_7_">
		</g>
		<g id="New_Symbol_2_5_">
			<g id="New_Symbol_4_7_">
				<g id="New_Symbol_5_4_">
				</g>
			</g>
		</g>
		<g id="New_Symbol_8_">
		</g>
		<g id="New_Symbol_1_5_">
			<g id="New_Symbol_2_6_">
			</g>
			<g id="New_Symbol_4_8_">
				<g id="New_Symbol_4_9_">
					<g id="New_Symbol_5_5_">
					</g>
				</g>
			</g>
		</g>
		<g id="New_Symbol_2_7_">
		</g>
	</g>
	<g id="New_Symbol_28_4_">
		<g id="New_Symbol_24_8_">
		</g>
	</g>
</g>
<g id="Layer_4">
	<g id="New_Symbol_15">
		<g id="New_Symbol_17">
		</g>
	</g>
	<g id="New_Symbol_9_3_">
		<g id="New_Symbol_9_4_">
		</g>
		<g id="New_Symbol_9_">
		</g>
		<g id="New_Symbol_10_">
			<g id="New_Symbol_1_6_">
			</g>
		</g>
		<g id="New_Symbol_1_7_">
			<g id="New_Symbol_1_8_">
				<g id="New_Symbol_1_9_">
				</g>
				<g id="New_Symbol_2_8_">
					<g id="New_Symbol_1_10_">
					</g>
				</g>
			</g>
		</g>
		<g id="New_Symbol_2_9_">
			<g id="New_Symbol_2_10_">
				<g id="New_Symbol_4_10_">
					<g id="New_Symbol_2_11_">
						<g id="New_Symbol_4_11_">
							<g id="New_Symbol_5_6_">
								<g id="New_Symbol_6_2_">
									<g id="New_Symbol_6_3_">
										<g id="New_Symbol_7_3_">
											<g id="New_Symbol_8_3_">
												<g id="New_Symbol_9_5_">
												</g>
											</g>
										</g>
									</g>
								</g>
							</g>
						</g>
					</g>
				</g>
			</g>
		</g>
		<g id="New_Symbol_11_">
			<g id="New_Symbol_7_4_">
				<g id="New_Symbol_8_4_">
					<g id="New_Symbol_8_5_">
						<g id="New_Symbol_9_6_">
							<g id="New_Symbol_10_2_">
								<g id="New_Symbol_11_2_">
									<g id="New_Symbol_12">
										<g id="New_Symbol_13">
											<g id="New_Symbol_13_1_">
												<g id="New_Symbol_14">
													<g id="New_Symbol_15_1_">
														<g id="New_Symbol_16">
															<g id="New_Symbol_17_1_">
																<g id="New_Symbol_12_">
																	<g id="New_Symbol_1_11_">
																		<g id="New_Symbol_2_12_">
																			<g id="New_Symbol_4_12_">
																				<g id="New_Symbol_5_7_">
																					<g id="New_Symbol_5_8_">
																						<g id="New_Symbol_6_4_">
																							<g id="New_Symbol_7_5_">
																							</g>
																						</g>
																					</g>
																				</g>
																			</g>
																		</g>
																	</g>
																</g>
															</g>
														</g>
													</g>
												</g>
											</g>
										</g>
									</g>
								</g>
							</g>
						</g>
					</g>
				</g>
			</g>
		</g>
		<g id="New_Symbol_13_">
			<g id="New_Symbol_1_12_">
			</g>
		</g>
		<g id="New_Symbol_14_">
			<g id="New_Symbol_1_13_">
				<g id="New_Symbol_2_13_">
					<g id="New_Symbol_2_14_">
						<g id="New_Symbol_8_12_">
						</g>
						<g id="New_Symbol_8_11_">
						</g>
						<g id="New_Symbol_8_10_">
						</g>
						<g id="New_Symbol_8_9_">
						</g>
						<g id="New_Symbol_8_8_">
						</g>
						<g id="New_Symbol_8_7_">
						</g>
						<g id="New_Symbol_8_6_">
						</g>
						<g id="New_Symbol_4_13_">
							<g id="New_Symbol_5_9_">
								<g id="New_Symbol_6_5_">
									<g id="New_Symbol_7_6_">
										<g id="New_Symbol_9_7_">
										</g>
									</g>
								</g>
							</g>
						</g>
					</g>
				</g>
			</g>
		</g>
		<g id="New_Symbol_2_19_">
		</g>
		<g id="New_Symbol_2_18_">
		</g>
		<g id="New_Symbol_2_17_">
		</g>
		<g id="New_Symbol_2_16_">
		</g>
		<g id="New_Symbol_2_15_">
		</g>
		<g id="New_Symbol_4_14_">
			<g id="New_Symbol_2_25_">
			</g>
			<g id="New_Symbol_2_24_">
			</g>
			<g id="New_Symbol_2_23_">
			</g>
			<g id="New_Symbol_2_22_">
			</g>
			<g id="New_Symbol_2_21_">
			</g>
			<g id="New_Symbol_2_20_">
			</g>
			<g id="New_Symbol_14_1_">
				<g id="New_Symbol_22">
				</g>
				<g id="New_Symbol_10_3_">
					<g id="New_Symbol_2_32_">
					</g>
					<g id="New_Symbol_2_31_">
					</g>
					<g id="New_Symbol_2_30_">
					</g>
					<g id="New_Symbol_2_29_">
					</g>
					<g id="New_Symbol_2_28_">
					</g>
					<g id="New_Symbol_2_27_">
					</g>
					<g id="New_Symbol_2_26_">
					</g>
					<g id="New_Symbol_2_33_">
					</g>
					<g id="New_Symbol_11_3_">
						<g id="New_Symbol_2_41_">
						</g>
						<g id="New_Symbol_2_40_">
						</g>
						<g id="New_Symbol_2_39_">
						</g>
						<g id="New_Symbol_2_38_">
						</g>
						<g id="New_Symbol_2_37_">
						</g>
						<g id="New_Symbol_2_36_">
						</g>
						<g id="New_Symbol_2_35_">
						</g>
						<g id="New_Symbol_2_34_">
						</g>
						<g id="New_Symbol_12_1_">
							<g id="New_Symbol_8_20_">
							</g>
							<g id="New_Symbol_8_19_">
							</g>
							<g id="New_Symbol_8_18_">
							</g>
							<g id="New_Symbol_8_17_">
							</g>
							<g id="New_Symbol_8_16_">
							</g>
							<g id="New_Symbol_8_15_">
							</g>
							<g id="New_Symbol_8_14_">
							</g>
							<g id="New_Symbol_8_13_">
							</g>
							<g id="New_Symbol_13_2_">
								<g id="New_Symbol_8_22_">
								</g>
								<g id="New_Symbol_8_21_">
								</g>
								<g id="New_Symbol_14_2_">
									<g id="New_Symbol_8_30_">
									</g>
									<g id="New_Symbol_8_29_">
									</g>
									<g id="New_Symbol_8_27_">
									</g>
									<g id="New_Symbol_8_25_">
									</g>
									<g id="New_Symbol_8_23_">
									</g>
									<g id="New_Symbol_8_28_">
									</g>
									<g id="New_Symbol_8_24_">
									</g>
									<g id="New_Symbol_8_26_">
									</g>
									<g id="New_Symbol_15_2_">
										<g id="New_Symbol_16_1_">
											<g id="New_Symbol_8_37_">
											</g>
											<g id="New_Symbol_8_36_">
											</g>
											<g id="New_Symbol_8_35_">
											</g>
											<g id="New_Symbol_8_34_">
											</g>
											<g id="New_Symbol_8_33_">
											</g>
											<g id="New_Symbol_8_32_">
											</g>
											<g id="New_Symbol_8_31_">
											</g>
										</g>
									</g>
								</g>
							</g>
						</g>
					</g>
				</g>
			</g>
		</g>
		<g id="New_Symbol_5_10_">
			<g id="New_Symbol_1_14_">
				<g id="New_Symbol_1_15_">
					<g id="New_Symbol_1_16_">
						<g id="New_Symbol_6_6_">
							<g id="New_Symbol_7_7_">
							</g>
						</g>
					</g>
				</g>
			</g>
		</g>
		<g id="New_Symbol_31">
			<g id="New_Symbol_24" class="st0">
			</g>
			<g id="New_Symbol_4_15_">
			</g>
			<g id="New_Symbol_25_1_">
			</g>
			<g id="New_Symbol_25">
			</g>
			<g id="New_Symbol_20">
			</g>
			<g id="New_Symbol_28_2_">
				<g id="New_Symbol_24_6_">
				</g>
			</g>
			<g id="New_Symbol_28_1_">
				<g id="New_Symbol_24_4_">
				</g>
			</g>
			<g id="New_Symbol_2_42_">
			</g>
			<g id="New_Symbol_7_11_">
			</g>
			<g id="New_Symbol_7_9_">
			</g>
			<g id="New_Symbol_7_10_">
			</g>
			<g id="New_Symbol_7_8_">
			</g>
			<g id="New_Symbol_19">
			</g>
			<g id="New_Symbol_15_3_">
			</g>
			<g id="New_Symbol_5_11_">
			</g>
			<g id="New_Symbol_4_16_">
			</g>
			<g id="New_Symbol_26">
				<g id="New_Symbol_18">
				</g>
			</g>
			<g id="New_Symbol_17_2_">
			</g>
			<g id="New_Symbol_20_3_">
			</g>
			<g id="New_Symbol_22_1_">
			</g>
			<g id="New_Symbol_25_2_">
			</g>
			<g id="New_Symbol_13_3_">
			</g>
			<g id="New_Symbol_27">
				<g id="New_Symbol_20_2_">
				</g>
			</g>
			<g id="New_Symbol_24_3_">
			</g>
			<g id="New_Symbol_24_1_">
			</g>
			<g id="New_Symbol_32">
				<g id="New_Symbol_20_4_">
				</g>
			</g>
			<g id="New_Symbol_7_12_">
			</g>
		</g>
		<g id="New_Symbol_19_1_">
			<g id="New_Symbol_20_1_">
				<g id="New_Symbol_21">
					<g id="New_Symbol_22_2_">
						<g id="New_Symbol_24_2_">
							<g id="New_Symbol_25_3_">
								<g id="New_Symbol_26_1_">
									<g id="New_Symbol_27_1_">
										<g id="New_Symbol_28_3_">
											<g id="New_Symbol_29">
											</g>
										</g>
									</g>
								</g>
							</g>
						</g>
					</g>
				</g>
			</g>
		</g>
		<g id="New_Symbol_20_6_">
			<g id="New_Symbol_8_38_">
			</g>
			<g id="New_Symbol_8_39_">
			</g>
			<g id="New_Symbol_13_5_">
			</g>
			<g id="New_Symbol_6_7_">
			</g>
			<g id="New_Symbol_35" class="st1">
			</g>
			<g id="New_Symbol_27_3_">
				<g id="New_Symbol_20_8_">
				</g>
			</g>
			<g id="New_Symbol_13_4_">
			</g>
			<g id="New_Symbol_2_44_">
			</g>
			<g id="New_Symbol_10_4_">
			</g>
			<g id="New_Symbol_2_43_">
			</g>
			<g id="New_Symbol_27_2_">
				<g id="New_Symbol_20_7_">
				</g>
			</g>
			<g id="New_Symbol_12_2_">
			</g>
		</g>
	</g>
	<g id="New_Symbol_30">
		<g id="New_Symbol_12_3_">
		</g>
		<g id="New_Symbol_13_9_">
		</g>
		<g id="New_Symbol_13_8_" class="st2">
		</g>
		<g id="New_Symbol_24_22_">
		</g>
		<g id="New_Symbol_24_7_">
		</g>
		<g id="New_Symbol_24_21_">
		</g>
		<g id="New_Symbol_24_9_" class="st3">
		</g>
		<g id="New_Symbol_13_6_">
		</g>
		<g id="New_Symbol_13_7_">
		</g>
		<g id="New_Symbol_2_47_">
		</g>
		<g id="New_Symbol_2_46_">
		</g>
		<g id="New_Symbol_2_45_">
		</g>
		<g id="New_Symbol_11_14_">
			<g id="New_Symbol_24_20_">
			</g>
		</g>
		<g id="New_Symbol_11_11_" class="st4">
			<g id="New_Symbol_24_17_">
			</g>
		</g>
		<g id="New_Symbol_11_10_" class="st5">
			<g id="New_Symbol_24_16_">
			</g>
		</g>
		<g id="New_Symbol_11_9_" class="st6">
			<g id="New_Symbol_24_15_">
			</g>
		</g>
		<g id="New_Symbol_11_8_" class="st6">
			<g id="New_Symbol_24_14_">
			</g>
		</g>
		<g id="New_Symbol_11_7_" class="st6">
			<g id="New_Symbol_24_13_">
			</g>
		</g>
		<g id="New_Symbol_11_6_" class="st7">
			<g id="New_Symbol_24_12_">
			</g>
		</g>
		<g id="New_Symbol_11_5_">
			<g id="New_Symbol_24_10_">
			</g>
		</g>
		<g id="New_Symbol_11_4_" class="st8">
			<g id="New_Symbol_24_5_">
			</g>
		</g>
		<g id="New_Symbol_18_1_">
		</g>
		<g id="New_Symbol_6_9_">
		</g>
		<g id="New_Symbol_6_8_">
			<g id="New_Symbol_31_1_">
				<g id="New_Symbol_13_15_">
				</g>
				<g id="New_Symbol_13_14_" class="st2">
				</g>
				<g id="New_Symbol_13_13_" class="st2">
				</g>
				<g id="New_Symbol_24_37_">
				</g>
				<g id="New_Symbol_24_36_">
				</g>
				<g id="New_Symbol_24_35_">
				</g>
				<g id="New_Symbol_24_34_" class="st3">
				</g>
				<g id="New_Symbol_13_12_" class="st9">
				</g>
				<g id="New_Symbol_13_11_">
				</g>
				<g id="New_Symbol_13_10_">
				</g>
				<g id="New_Symbol_2_50_">
				</g>
				<g id="New_Symbol_2_49_">
				</g>
				<g id="New_Symbol_2_48_">
				</g>
				<g id="New_Symbol_11_24_">
					<g id="New_Symbol_24_33_">
					</g>
				</g>
				<g id="New_Symbol_11_23_" class="st10">
					<g id="New_Symbol_24_32_">
					</g>
				</g>
				<g id="New_Symbol_11_22_" class="st4">
					<g id="New_Symbol_24_31_">
					</g>
				</g>
				<g id="New_Symbol_11_21_" class="st4">
					<g id="New_Symbol_24_30_">
					</g>
				</g>
				<g id="New_Symbol_11_20_" class="st5">
					<g id="New_Symbol_24_29_">
					</g>
				</g>
				<g id="New_Symbol_11_19_" class="st6">
					<g id="New_Symbol_24_28_">
					</g>
				</g>
				<g id="New_Symbol_11_18_" class="st6">
					<g id="New_Symbol_24_27_">
					</g>
				</g>
				<g id="New_Symbol_11_17_" class="st6">
					<g id="New_Symbol_24_26_">
					</g>
				</g>
				<g id="New_Symbol_11_16_" class="st7">
					<g id="New_Symbol_24_25_">
					</g>
				</g>
				<g id="New_Symbol_11_15_" class="st8">
					<g id="New_Symbol_24_24_">
					</g>
				</g>
				<g id="New_Symbol_18_2_">
				</g>
				<g id="New_Symbol_6_11_">
				</g>
				<g id="New_Symbol_6_10_">
				</g>
				<g id="New_Symbol_8_48_">
				</g>
				<g id="New_Symbol_8_47_">
				</g>
				<g id="New_Symbol_8_46_">
				</g>
				<g id="New_Symbol_8_45_">
				</g>
				<g id="New_Symbol_8_44_">
				</g>
				<g id="New_Symbol_35_3_">
				</g>
				<g id="New_Symbol_10_6_">
				</g>
				<g id="New_Symbol_34">
					<g id="New_Symbol_13_17_">
						<g id="New_Symbol_13_23_">
						</g>
						<g id="New_Symbol_13_22_" class="st2">
						</g>
						<g id="New_Symbol_13_21_" class="st2">
						</g>
						<g id="New_Symbol_24_51_">
						</g>
						<g id="New_Symbol_24_50_">
						</g>
						<g id="New_Symbol_24_49_">
						</g>
						<g id="New_Symbol_24_48_" class="st3">
						</g>
						<g id="New_Symbol_13_20_" class="st9">
						</g>
					</g>
					<g id="New_Symbol_13_19_">
					</g>
					<g id="New_Symbol_13_18_">
					</g>
					<g id="New_Symbol_2_53_">
					</g>
					<g id="New_Symbol_2_52_">
					</g>
					<g id="New_Symbol_2_51_">
					</g>
					<g id="New_Symbol_11_34_">
						<g id="New_Symbol_24_47_">
						</g>
					</g>
					<g id="New_Symbol_11_33_" class="st10">
						<g id="New_Symbol_24_46_">
						</g>
					</g>
					<g id="New_Symbol_11_32_" class="st4">
						<g id="New_Symbol_24_45_">
						</g>
					</g>
					<g id="New_Symbol_11_31_" class="st4">
						<g id="New_Symbol_24_44_">
						</g>
					</g>
					<g id="New_Symbol_11_30_" class="st5">
						<g id="New_Symbol_24_43_">
						</g>
					</g>
					<g id="New_Symbol_11_29_" class="st6">
						<g id="New_Symbol_24_42_">
						</g>
					</g>
					<g id="New_Symbol_11_28_" class="st6">
						<g id="New_Symbol_24_41_">
						</g>
					</g>
					<g id="New_Symbol_11_27_" class="st6">
						<g id="New_Symbol_24_40_">
						</g>
					</g>
					<g id="New_Symbol_11_26_" class="st7">
						<g id="New_Symbol_24_39_">
						</g>
					</g>
					<g id="New_Symbol_11_25_" class="st8">
						<g id="New_Symbol_24_38_">
						</g>
					</g>
					<g id="New_Symbol_18_3_">
					</g>
					<g id="New_Symbol_6_13_">
					</g>
					<g id="New_Symbol_6_12_">
					</g>
					<g id="New_Symbol_8_52_">
					</g>
					<g id="New_Symbol_8_51_">
					</g>
					<g id="New_Symbol_8_50_">
					</g>
					<g id="New_Symbol_8_49_">
					</g>
					<g id="New_Symbol_35_4_">
					</g>
					<g id="New_Symbol_10_7_">
					</g>
				</g>
			</g>
		</g>
		<g id="New_Symbol_8_43_">
		</g>
		<g id="New_Symbol_8_42_">
		</g>
		<g id="New_Symbol_8_41_">
		</g>
		<g id="New_Symbol_8_40_">
		</g>
		<g id="New_Symbol_35_1_">
		</g>
		<g id="New_Symbol_35_2_">
		</g>
		<g id="New_Symbol_10_5_">
		</g>
		<g id="New_Symbol_11_12_" class="st4">
			<g id="New_Symbol_24_18_">
			</g>
		</g>
		<g id="New_Symbol_11_13_" class="st10">
			<g id="New_Symbol_24_19_">
			</g>
		</g>
	</g>
</g>
<g id="Layer_294">
	<g id="New_Symbol_19_2_">
	</g>
	<g id="New_Symbol_20_5_">
		<g id="New_Symbol_19_3_">
		</g>
		<g id="New_Symbol_20_9_">
		</g>
		<g id="New_Symbol_21_2_">
		</g>
		<g id="New_Symbol_17_4_">
		</g>
	</g>
	<g id="New_Symbol_21_1_">
	</g>
	<g id="New_Symbol_17_3_">
	</g>
	<g>
		<path class="st11" d="M223.2,66.7h7.9v36.9h-7.9V66.7z"/>
		<path class="st11" d="M243.8,73.6h-9.4l0-6.9h26.8v6.9h-9.4v30h-7.9V73.6z"/>
		<path class="st11" d="M260.7,85.2c0-11.3,8.6-19.1,19.4-19.1c8.4,0,13.1,4.4,15.7,9l-6.7,3.3c-1.5-3-4.9-5.4-9-5.4
			c-6.4,0-11.3,5.1-11.3,12.1c0,7,4.9,12.1,11.3,12.1c4.1,0,7.4-2.3,9-5.4l6.7,3.3c-2.7,4.6-7.3,9.1-15.7,9.1
			C269.3,104.3,260.7,96.5,260.7,85.2z"/>
		<path class="st11" d="M300.5,66.7h26.1v6.7h-18.3v8h17.9v6.7h-17.9v8.6h18.3v6.8h-26.1V66.7z"/>
		<path class="st11" d="M347.3,90.4h-5.8v13.2h-7.9V66.7H351c7.7,0,12.4,5,12.4,11.9c0,6.5-4.1,10-8.1,11l8.3,14h-9L347.3,90.4z
			 M349.8,73.5h-8.2v10.2h8.2c3.2,0,5.5-2,5.5-5.1S353,73.5,349.8,73.5z"/>
	</g>
	<polygon class="st12" points="149.4,85.2 128.1,85.2 138.8,66.7 	"/>
	<polygon class="st13" points="138.8,66.7 160.1,66.7 149.4,85.2 	"/>
	<polygon class="st13" points="170.7,85.2 149.4,85.2 160.1,66.7 	"/>
	<polygon class="st13" points="181.4,103.6 160.1,103.6 170.7,85.2 	"/>
	<polygon class="st14" points="138.8,103.6 149.4,85.2 128.1,85.2 	"/>
	<polygon class="st13" points="160.1,103.6 170.7,85.2 149.4,85.2 	"/>
	<polygon class="st11" points="192,85.2 170.7,85.2 181.4,66.7 	"/>
	<polygon class="st11" points="181.4,103.6 192,85.2 170.7,85.2 	"/>
	<polygon class="st11" points="192,85.2 202.7,66.7 181.4,66.7 	"/>
	<polygon class="st15" points="128.1,85.2 106.8,85.2 117.5,66.7 	"/>
	<polygon class="st11" points="149.4,85.2 128.1,85.2 138.8,66.7 	"/>
	<polygon class="st15" points="117.5,103.6 128.1,85.2 106.8,85.2 	"/>
	<polygon class="st15" points="106.8,85.2 117.5,66.7 96.2,66.7 	"/>
	<polygon class="st11" points="106.8,85.2 85.5,85.2 96.2,66.7 	"/>
	<polygon class="st11" points="74.9,103.6 96.2,103.6 85.5,85.2 	"/>
	<polygon class="st11" points="96.2,103.6 106.8,85.2 85.5,85.2 	"/>
	<polygon class="st15" points="128.1,85.2 117.5,103.6 138.8,103.6 	"/>
	<polygon class="st11" points="138.8,103.6 149.4,85.2 128.1,85.2 	"/>
	<g>
		<path class="st16" d="M223.3,117.1h0.4v7.9h-0.4V117.1z"/>
		<path class="st16" d="M229.7,121c0-1.2-0.6-1.5-1.5-1.5c-0.8,0-1.6,0.5-2,1.1v4.5h-0.4v-5.7h0.4v0.9c0.4-0.5,1.3-1,2.1-1
			c1.1,0,1.8,0.5,1.8,1.9v4h-0.4V121z"/>
		<path class="st16" d="M232.2,123.9v-4.4h-0.9v-0.3h0.9v-1.6h0.4v1.6h1.2v0.3h-1.2v4.4c0,0.5,0.2,0.8,0.6,0.8
			c0.3,0,0.5-0.1,0.7-0.3l0.2,0.3c-0.2,0.2-0.5,0.4-0.9,0.4C232.5,125.1,232.2,124.6,232.2,123.9z"/>
		<path class="st16" d="M237.5,119.1c1.8,0,2.6,1.4,2.6,3v0.1h-4.9c0,1.4,0.9,2.6,2.4,2.6c0.8,0,1.5-0.3,2-0.9l0.2,0.2
			c-0.6,0.6-1.2,1-2.2,1c-1.7,0-2.8-1.3-2.8-3C234.9,120.4,236,119.1,237.5,119.1z M235.3,121.9h4.6c0-1.1-0.7-2.5-2.3-2.5
			C236.1,119.4,235.3,120.8,235.3,121.9z"/>
		<path class="st16" d="M242,119.2h0.4v1c0.5-0.7,1.1-1.1,2-1.1v0.4c-0.1,0-0.2,0-0.3,0c-0.6,0-1.4,0.6-1.7,1.1v4.3H242V119.2z"/>
		<path class="st16" d="M249.5,121c0-1.2-0.6-1.5-1.5-1.5c-0.8,0-1.6,0.5-2,1.1v4.5h-0.4v-5.7h0.4v0.9c0.4-0.5,1.3-1,2.1-1
			c1.1,0,1.8,0.5,1.8,1.9v4h-0.4V121z"/>
		<path class="st16" d="M255.6,124.2c-0.5,0.6-1.2,0.8-2,0.8c-1,0-2-0.7-2-1.9c0-1.2,1-1.9,2-1.9c0.8,0,1.4,0.3,2,0.8v-1.3
			c0-0.9-0.7-1.4-1.6-1.4c-0.7,0-1.3,0.3-1.8,0.9l-0.3-0.2c0.6-0.7,1.1-1,2.1-1c1.1,0,2,0.6,2,1.7v4.1h-0.4V124.2z M255.6,122.5
			c-0.4-0.6-1.1-0.9-1.9-0.9c-1,0-1.7,0.7-1.7,1.6s0.7,1.6,1.7,1.6c0.7,0,1.4-0.3,1.9-0.9V122.5z"/>
		<path class="st16" d="M258.2,123.9v-4.4h-0.9v-0.3h0.9v-1.6h0.4v1.6h1.2v0.3h-1.2v4.4c0,0.5,0.2,0.8,0.6,0.8
			c0.3,0,0.5-0.1,0.7-0.3l0.2,0.3c-0.2,0.2-0.5,0.4-0.9,0.4C258.5,125.1,258.2,124.6,258.2,123.9z"/>
		<path class="st16" d="M261,117.9c0-0.2,0.2-0.3,0.3-0.3c0.2,0,0.3,0.2,0.3,0.3s-0.2,0.3-0.3,0.3C261.2,118.2,261,118.1,261,117.9z
			 M261.2,119.2h0.4v5.7h-0.4V119.2z"/>
		<path class="st16" d="M263.3,122.1c0-1.7,1.1-3,2.7-3c1.6,0,2.7,1.3,2.7,3c0,1.7-1,3-2.7,3C264.4,125.1,263.3,123.8,263.3,122.1z
			 M268.2,122.1c0-1.4-0.8-2.7-2.3-2.7c-1.5,0-2.3,1.3-2.3,2.7c0,1.4,0.8,2.7,2.3,2.7C267.4,124.8,268.2,123.5,268.2,122.1z"/>
		<path class="st16" d="M274.3,121c0-1.2-0.6-1.5-1.5-1.5c-0.8,0-1.6,0.5-2,1.1v4.5h-0.4v-5.7h0.4v0.9c0.4-0.5,1.3-1,2.1-1
			c1.1,0,1.8,0.5,1.8,1.9v4h-0.4V121z"/>
		<path class="st16" d="M280.4,124.2c-0.5,0.6-1.2,0.8-2,0.8c-1,0-2-0.7-2-1.9c0-1.2,1-1.9,2-1.9c0.8,0,1.4,0.3,2,0.8v-1.3
			c0-0.9-0.7-1.4-1.6-1.4c-0.7,0-1.3,0.3-1.8,0.9l-0.3-0.2c0.6-0.7,1.1-1,2.1-1c1.1,0,2,0.6,2,1.7v4.1h-0.4V124.2z M280.4,122.5
			c-0.4-0.6-1.1-0.9-1.9-0.9c-1,0-1.7,0.7-1.7,1.6s0.7,1.6,1.7,1.6c0.7,0,1.4-0.3,1.9-0.9V122.5z"/>
		<path class="st16" d="M282.9,117.1h0.4v7.9h-0.4V117.1z"/>
		<path class="st16" d="M290,117.4h-2.7v-0.4h5.7v0.4h-2.7v7.5H290V117.4z"/>
		<path class="st16" d="M293.4,119.2h0.4v1c0.5-0.7,1.1-1.1,2-1.1v0.4c-0.1,0-0.2,0-0.3,0c-0.6,0-1.4,0.6-1.7,1.1v4.3h-0.4V119.2z"
			/>
		<path class="st16" d="M300.7,124.2c-0.5,0.6-1.2,0.8-2,0.8c-1,0-2-0.7-2-1.9c0-1.2,1-1.9,2-1.9c0.8,0,1.4,0.3,2,0.8v-1.3
			c0-0.9-0.7-1.4-1.6-1.4c-0.7,0-1.3,0.3-1.8,0.9l-0.3-0.2c0.6-0.7,1.1-1,2.1-1c1.1,0,2,0.6,2,1.7v4.1h-0.4V124.2z M300.7,122.5
			c-0.4-0.6-1.1-0.9-1.9-0.9c-1,0-1.7,0.7-1.7,1.6s0.7,1.6,1.7,1.6c0.7,0,1.4-0.3,1.9-0.9V122.5z"/>
		<path class="st16" d="M303,117.9c0-0.2,0.2-0.3,0.3-0.3c0.2,0,0.3,0.2,0.3,0.3s-0.2,0.3-0.3,0.3C303.2,118.2,303,118.1,303,117.9z
			 M303.2,119.2h0.4v5.7h-0.4V119.2z"/>
		<path class="st16" d="M309.4,121c0-1.2-0.6-1.5-1.5-1.5c-0.8,0-1.6,0.5-2,1.1v4.5h-0.4v-5.7h0.4v0.9c0.4-0.5,1.3-1,2.1-1
			c1.1,0,1.8,0.5,1.8,1.9v4h-0.4V121z"/>
		<path class="st16" d="M311.7,117.9c0-0.2,0.2-0.3,0.3-0.3c0.2,0,0.3,0.2,0.3,0.3s-0.2,0.3-0.3,0.3
			C311.9,118.2,311.7,118.1,311.7,117.9z M311.9,119.2h0.4v5.7h-0.4V119.2z"/>
		<path class="st16" d="M318.2,121c0-1.2-0.6-1.5-1.5-1.5c-0.8,0-1.6,0.5-2,1.1v4.5h-0.4v-5.7h0.4v0.9c0.4-0.5,1.3-1,2.1-1
			c1.1,0,1.8,0.5,1.8,1.9v4h-0.4V121z"/>
		<path class="st16" d="M321,126.1c0.5,0.6,1,0.8,1.9,0.8c1.1,0,2.1-0.6,2.1-2v-1c-0.4,0.6-1.2,1.1-2.1,1.1c-1.5,0-2.6-1.2-2.6-3
			c0-1.8,1-3,2.6-3c0.9,0,1.6,0.4,2.1,1.1v-1h0.4v5.7c0,1.6-1,2.3-2.4,2.3c-1,0-1.5-0.2-2.2-0.9L321,126.1z M324.9,120.6
			c-0.4-0.6-1.2-1.2-2.1-1.2c-1.4,0-2.2,1.2-2.2,2.7s0.8,2.7,2.2,2.7c0.9,0,1.7-0.6,2.1-1.2V120.6z"/>
		<path class="st16" d="M330.3,121c0-2.4,1.8-4.1,3.9-4.1c1.1,0,2,0.4,2.7,1.2l-0.3,0.3c-0.6-0.7-1.5-1.1-2.4-1.1
			c-2,0-3.5,1.5-3.5,3.7c0,2.2,1.5,3.7,3.5,3.7c1,0,1.9-0.4,2.4-1.1l0.3,0.2c-0.7,0.8-1.6,1.3-2.8,1.3
			C332,125.1,330.3,123.4,330.3,121z"/>
		<path class="st16" d="M340.1,119.1c1.8,0,2.6,1.4,2.6,3v0.1h-4.9c0,1.4,0.9,2.6,2.4,2.6c0.8,0,1.5-0.3,2-0.9l0.2,0.2
			c-0.6,0.6-1.2,1-2.2,1c-1.7,0-2.8-1.3-2.8-3C337.4,120.4,338.5,119.1,340.1,119.1z M337.8,121.9h4.6c0-1.1-0.7-2.5-2.3-2.5
			C338.6,119.4,337.8,120.8,337.8,121.9z"/>
		<path class="st16" d="M348.4,121c0-1.2-0.6-1.5-1.5-1.5c-0.8,0-1.6,0.5-2,1.1v4.5h-0.4v-5.7h0.4v0.9c0.4-0.5,1.3-1,2.1-1
			c1.1,0,1.8,0.5,1.8,1.9v4h-0.4V121z"/>
		<path class="st16" d="M350.9,123.9v-4.4h-0.9v-0.3h0.9v-1.6h0.4v1.6h1.2v0.3h-1.2v4.4c0,0.5,0.2,0.8,0.6,0.8
			c0.3,0,0.5-0.1,0.7-0.3l0.2,0.3c-0.2,0.2-0.5,0.4-0.9,0.4C351.2,125.1,350.9,124.6,350.9,123.9z"/>
		<path class="st16" d="M354.2,119.2h0.4v1c0.5-0.7,1.1-1.1,2-1.1v0.4c-0.1,0-0.2,0-0.3,0c-0.6,0-1.4,0.6-1.7,1.1v4.3h-0.4V119.2z"
			/>
		<path class="st16" d="M359.9,119.1c1.8,0,2.6,1.4,2.6,3v0.1h-4.9c0,1.4,0.9,2.6,2.4,2.6c0.8,0,1.5-0.3,2-0.9l0.2,0.2
			c-0.6,0.6-1.2,1-2.2,1c-1.7,0-2.8-1.3-2.8-3C357.2,120.4,358.4,119.1,359.9,119.1z M357.6,121.9h4.6c0-1.1-0.7-2.5-2.3-2.5
			C358.4,119.4,357.7,120.8,357.6,121.9z"/>
	</g>
	<text transform="matrix(1 0 0 1 369.7559 125.1211)" class="st16 st17 st18"> </text>
	<g>
		<path class="st16" d="M223.2,133.8h-0.9v-0.3h0.9v-0.6c0-1.1,0.5-1.7,1.4-1.7c0.2,0,0.5,0,0.7,0.2l-0.2,0.3
			c-0.1-0.1-0.3-0.1-0.5-0.1c-0.7,0-1.1,0.5-1.1,1.4v0.6h1.2v0.3h-1.2v5.4h-0.4V133.8z"/>
		<path class="st16" d="M225.8,136.4c0-1.7,1.1-3,2.7-3c1.6,0,2.7,1.3,2.7,3c0,1.7-1,3-2.7,3C226.8,139.4,225.8,138,225.8,136.4z
			 M230.7,136.4c0-1.4-0.8-2.7-2.3-2.7c-1.5,0-2.3,1.3-2.3,2.7c0,1.4,0.8,2.7,2.3,2.7C229.9,139,230.7,137.8,230.7,136.4z"/>
		<path class="st16" d="M233,133.5h0.4v1c0.5-0.7,1.1-1.1,2-1.1v0.4c-0.1,0-0.2,0-0.3,0c-0.6,0-1.4,0.6-1.7,1.1v4.3H233V133.5z"/>
		<path class="st16" d="M240.1,131.3h4.8v0.4h-4.4v3.3h4.4v0.4h-4.4v3.5h4.4v0.4h-4.8V131.3z"/>
		<path class="st16" d="M250.7,135.2c0-1.2-0.6-1.5-1.5-1.5c-0.8,0-1.6,0.5-2,1.1v4.5h-0.4v-5.7h0.4v0.9c0.4-0.5,1.3-1,2.1-1
			c1.1,0,1.8,0.5,1.8,1.9v4h-0.4V135.2z"/>
		<path class="st16" d="M252.3,133.5h0.4l2.2,5.3l2.2-5.3h0.4l-2.4,5.7h-0.4L252.3,133.5z"/>
		<path class="st16" d="M258.8,132.2c0-0.2,0.2-0.3,0.3-0.3c0.2,0,0.3,0.2,0.3,0.3s-0.2,0.3-0.3,0.3
			C259,132.5,258.8,132.4,258.8,132.2z M259,133.5h0.4v5.7H259V133.5z"/>
		<path class="st16" d="M261.5,133.5h0.4v1c0.5-0.7,1.1-1.1,2-1.1v0.4c-0.1,0-0.2,0-0.3,0c-0.6,0-1.4,0.6-1.7,1.1v4.3h-0.4V133.5z"
			/>
		<path class="st16" d="M265,136.4c0-1.7,1.1-3,2.7-3c1.6,0,2.7,1.3,2.7,3c0,1.7-1,3-2.7,3C266,139.4,265,138,265,136.4z
			 M269.9,136.4c0-1.4-0.8-2.7-2.3-2.7c-1.5,0-2.3,1.3-2.3,2.7c0,1.4,0.8,2.7,2.3,2.7C269.1,139,269.9,137.8,269.9,136.4z"/>
		<path class="st16" d="M276.1,135.2c0-1.2-0.6-1.5-1.5-1.5c-0.8,0-1.6,0.5-2,1.1v4.5h-0.4v-5.7h0.4v0.9c0.4-0.5,1.3-1,2.1-1
			c1.1,0,1.8,0.5,1.8,1.9v4h-0.4V135.2z"/>
		<path class="st16" d="M285.3,135.1c0-0.9-0.4-1.4-1.2-1.4c-0.6,0-1.4,0.5-1.8,1.1v4.5H282v-4.1c0-0.9-0.4-1.4-1.2-1.4
			c-0.6,0-1.4,0.5-1.8,1.1v4.5h-0.4v-5.7h0.4v0.9c0.2-0.4,1-1,1.8-1c0.9,0,1.4,0.6,1.5,1.1c0.3-0.5,1.1-1.1,1.9-1.1
			c1,0,1.5,0.6,1.5,1.7v4.1h-0.4V135.1z"/>
		<path class="st16" d="M290.3,133.4c1.8,0,2.6,1.4,2.6,3v0.1H288c0,1.4,0.9,2.6,2.4,2.6c0.8,0,1.5-0.3,2-0.9l0.2,0.2
			c-0.6,0.6-1.2,1-2.2,1c-1.7,0-2.8-1.3-2.8-3C287.6,134.7,288.7,133.4,290.3,133.4z M288,136.2h4.6c0-1.1-0.7-2.5-2.3-2.5
			C288.8,133.7,288,135,288,136.2z"/>
		<path class="st16" d="M298.7,135.2c0-1.2-0.6-1.5-1.5-1.5c-0.8,0-1.6,0.5-2,1.1v4.5h-0.4v-5.7h0.4v0.9c0.4-0.5,1.3-1,2.1-1
			c1.1,0,1.8,0.5,1.8,1.9v4h-0.4V135.2z"/>
		<path class="st16" d="M301.3,138.2v-4.4h-0.9v-0.3h0.9v-1.6h0.4v1.6h1.2v0.3h-1.2v4.4c0,0.5,0.2,0.8,0.6,0.8
			c0.3,0,0.5-0.1,0.7-0.3l0.2,0.3c-0.2,0.2-0.5,0.4-0.9,0.4C301.6,139.4,301.3,138.9,301.3,138.2z"/>
		<path class="st16" d="M308.1,138.5c-0.5,0.6-1.2,0.8-2,0.8c-1,0-2-0.7-2-1.9c0-1.2,1-1.9,2-1.9c0.8,0,1.4,0.3,2,0.8v-1.3
			c0-0.9-0.7-1.4-1.6-1.4c-0.7,0-1.3,0.3-1.8,0.9l-0.3-0.2c0.6-0.7,1.1-1,2.1-1c1.1,0,2,0.6,2,1.7v4.1h-0.4V138.5z M308.1,136.7
			c-0.4-0.6-1.1-0.9-1.9-0.9c-1,0-1.7,0.7-1.7,1.6s0.7,1.6,1.7,1.6c0.7,0,1.4-0.3,1.9-0.9V136.7z"/>
		<path class="st16" d="M310.7,131.3h0.4v7.9h-0.4V131.3z"/>
		<path class="st16" d="M318.8,135.8h-1.9v3.4h-0.4v-7.9h2.7c1.3,0,2.3,0.8,2.3,2.2c0,1.4-1.1,2.2-2.3,2.2l2.4,3.4h-0.5L318.8,135.8
			z M319.3,131.7h-2.3v3.8h2.3c1.2,0,1.9-0.8,1.9-1.9S320.4,131.7,319.3,131.7z"/>
		<path class="st16" d="M325.6,133.4c1.8,0,2.6,1.4,2.6,3v0.1h-4.9c0,1.4,0.9,2.6,2.4,2.6c0.8,0,1.5-0.3,2-0.9l0.2,0.2
			c-0.6,0.6-1.2,1-2.2,1c-1.7,0-2.8-1.3-2.8-3C322.9,134.7,324,133.4,325.6,133.4z M323.3,136.2h4.6c0-1.1-0.7-2.5-2.3-2.5
			C324.1,133.7,323.3,135,323.3,136.2z"/>
		<path class="st16" d="M329.9,138.2c0.4,0.5,1,0.9,1.8,0.9c1.1,0,1.7-0.6,1.7-1.3c0-0.8-0.9-1.1-1.7-1.3c-0.9-0.2-1.9-0.5-1.9-1.5
			c0-0.8,0.7-1.5,1.9-1.5c1,0,1.6,0.4,2,0.9l-0.3,0.2c-0.3-0.5-0.9-0.8-1.7-0.8c-1,0-1.6,0.5-1.6,1.2c0,0.7,0.8,0.9,1.6,1.2
			c1,0.2,2,0.5,2,1.7c0,0.9-0.7,1.6-2,1.6c-0.9,0-1.5-0.3-2.1-0.9L329.9,138.2z"/>
		<path class="st16" d="M338,133.4c1.8,0,2.6,1.4,2.6,3v0.1h-4.9c0,1.4,0.9,2.6,2.4,2.6c0.8,0,1.5-0.3,2-0.9l0.2,0.2
			c-0.6,0.6-1.2,1-2.2,1c-1.7,0-2.8-1.3-2.8-3C335.4,134.7,336.5,133.4,338,133.4z M335.8,136.2h4.6c0-1.1-0.7-2.5-2.3-2.5
			C336.6,133.7,335.8,135,335.8,136.2z"/>
		<path class="st16" d="M346.3,138.5c-0.5,0.6-1.2,0.8-2,0.8c-1,0-2-0.7-2-1.9c0-1.2,1-1.9,2-1.9c0.8,0,1.4,0.3,2,0.8v-1.3
			c0-0.9-0.7-1.4-1.6-1.4c-0.7,0-1.3,0.3-1.8,0.9l-0.3-0.2c0.6-0.7,1.1-1,2.1-1c1.1,0,2,0.6,2,1.7v4.1h-0.4V138.5z M346.3,136.7
			c-0.4-0.6-1.1-0.9-1.9-0.9c-1,0-1.7,0.7-1.7,1.6s0.7,1.6,1.7,1.6c0.7,0,1.4-0.3,1.9-0.9V136.7z"/>
		<path class="st16" d="M348.9,133.5h0.4v1c0.5-0.7,1.1-1.1,2-1.1v0.4c-0.1,0-0.2,0-0.3,0c-0.6,0-1.4,0.6-1.7,1.1v4.3h-0.4V133.5z"
			/>
		<path class="st16" d="M355,133.4c0.9,0,1.5,0.4,2,1l-0.3,0.2c-0.5-0.6-1-0.9-1.7-0.9c-1.5,0-2.3,1.2-2.3,2.7
			c0,1.5,0.9,2.7,2.3,2.7c0.7,0,1.2-0.2,1.7-0.9l0.3,0.2c-0.5,0.6-1,1-2,1c-1.7,0-2.7-1.4-2.7-3C352.3,134.7,353.4,133.4,355,133.4z
			"/>
		<path class="st16" d="M362.5,135.2c0-1.2-0.6-1.5-1.5-1.5c-0.8,0-1.6,0.5-2,1.1v4.5h-0.4v-7.9h0.4v3.1c0.4-0.5,1.3-1,2.1-1
			c1.1,0,1.8,0.5,1.8,1.8v4h-0.4V135.2z"/>
	</g>
</g>
</svg>
